<svg width="81" height="80" viewBox="0 0 81 80" fill="none" xmlns="http://www.w3.org/2000/svg">
<path d="M75.5 25C75.5 17.6667 69.5 11.6667 62.1667 11.6667C56 11.6667 50.8333 16 49.3333 21.6667H13.8333C9.16667 21.6667 5.5 25.3334 5.5 30V60C5.5 64.6667 9.16667 68.3334 13.8333 68.3334H60.5C65.1667 68.3334 68.8333 64.6667 68.8333 60V36.5C72.8333 34.1667 75.5 30 75.5 25ZM65.5 55H52C49.3333 55 47.1667 52.8334 47.1667 50C47.1667 47.1667 49.3333 45 52 45H65.5V55ZM65.5 41.6667H52C47.5 41.6667 43.8333 45.3334 43.8333 50C43.8333 54.6667 47.5 58.3334 52 58.3334H65.5V60C65.5 62.8334 63.3333 65 60.5 65H13.8333C11 65 8.83333 62.8334 8.83333 60V30C8.83333 27.1667 11 25 13.8333 25H48.8333C48.8333 32.3334 54.8333 38.3334 62.1667 38.3334C63.3333 38.3334 64.5 38.1667 65.5 37.8334V41.6667ZM62.1667 35C56.6667 35 52.1667 30.5 52.1667 25C52.1667 19.5 56.6667 15 62.1667 15C67.6667 15 72.1667 19.5 72.1667 25C72.1667 30.5 67.6667 35 62.1667 35Z" fill="url(#paint0_linear_9_1630)"/>
<path d="M62.1667 26.6667C63.1667 26.6667 63.8333 26 63.8333 25V20C63.8333 19 63.1667 18.3334 62.1667 18.3334C61.1667 18.3334 60.5 19 60.5 20V25C60.5 26 61.1667 26.6667 62.1667 26.6667Z" fill="url(#paint1_linear_9_1630)"/>
<path d="M61 28.8334C60.6667 29.1667 60.5 29.5 60.5 30C60.5 30.5 60.6667 30.8334 61 31.1667C61.3333 31.5 61.6667 31.6667 62.1667 31.6667C62.6667 31.6667 63 31.5 63.3333 31.1667C63.6667 30.8334 63.8333 30.3334 63.8333 30C63.8333 29.6667 63.6667 29.1667 63.3333 28.8334C62.6667 28.1667 61.6667 28.1667 61 28.8334Z" fill="url(#paint2_linear_9_1630)"/>
<path d="M52.1667 51.6667C53.0871 51.6667 53.8333 50.9205 53.8333 50C53.8333 49.0796 53.0871 48.3334 52.1667 48.3334C51.2462 48.3334 50.5 49.0796 50.5 50C50.5 50.9205 51.2462 51.6667 52.1667 51.6667Z" fill="url(#paint3_linear_9_1630)"/>
<defs>
<linearGradient id="paint0_linear_9_1630" x1="4.69361" y1="25.5079" x2="77.7471" y2="29.764" gradientUnits="userSpaceOnUse">
<stop stop-color="#EF9C92"/>
<stop offset="1" stop-color="#DD3DCB"/>
</linearGradient>
<linearGradient id="paint1_linear_9_1630" x1="60.4616" y1="20.3688" x2="63.9509" y2="20.4347" gradientUnits="userSpaceOnUse">
<stop stop-color="#EF9C92"/>
<stop offset="1" stop-color="#DD3DCB"/>
</linearGradient>
<linearGradient id="paint2_linear_9_1630" x1="60.4616" y1="29.1476" x2="63.9444" y2="29.3118" gradientUnits="userSpaceOnUse">
<stop stop-color="#EF9C92"/>
<stop offset="1" stop-color="#DD3DCB"/>
</linearGradient>
<linearGradient id="paint3_linear_9_1630" x1="50.4616" y1="49.1476" x2="53.9444" y2="49.3118" gradientUnits="userSpaceOnUse">
<stop stop-color="#EF9C92"/>
<stop offset="1" stop-color="#DD3DCB"/>
</linearGradient>
</defs>
</svg>
