<svg width="17" height="16" viewBox="0 0 17 16" fill="none" xmlns="http://www.w3.org/2000/svg">
<path d="M13.4509 8.23984C13.4509 9.00467 13.4509 9.7695 13.4509 10.5343C13.4509 10.7767 13.4509 11.019 13.4509 11.2614C13.4509 11.428 13.4534 11.5936 13.4326 11.7594C13.4417 11.6916 13.4508 11.6237 13.4599 11.5559C13.4343 11.7447 13.3851 11.9282 13.3126 12.1044C13.3383 12.0435 13.364 11.9825 13.3897 11.9215C13.3172 12.093 13.2242 12.2536 13.1118 12.4019C13.1517 12.3503 13.1916 12.2986 13.2315 12.247C13.1142 12.3987 12.9789 12.5339 12.8272 12.6512C12.8789 12.6113 12.9305 12.5714 12.9822 12.5315C12.8339 12.6439 12.6733 12.7369 12.5018 12.8095C12.5628 12.7837 12.6237 12.758 12.6847 12.7323C12.5085 12.8048 12.325 12.854 12.1362 12.8797C12.2041 12.8705 12.2719 12.8614 12.3397 12.8523C12.1388 12.8775 11.9348 12.8706 11.7326 12.8706C11.3958 12.8706 11.059 12.8706 10.7221 12.8706C9.73216 12.8706 8.74223 12.8706 7.75229 12.8706C6.97004 12.8706 6.18777 12.8706 5.40552 12.8706C5.2253 12.8706 5.0453 12.8748 4.86602 12.8523C4.93387 12.8614 5.00171 12.8705 5.06955 12.8797C4.88073 12.854 4.69726 12.8048 4.52105 12.7323C4.58201 12.758 4.64298 12.7837 4.70395 12.8095C4.53251 12.7369 4.37188 12.6439 4.22354 12.5315C4.2752 12.5714 4.32684 12.6113 4.37849 12.6512C4.22679 12.5339 4.09154 12.3987 3.97426 12.247C4.01416 12.2986 4.05407 12.3503 4.09398 12.4019C3.98154 12.2536 3.88852 12.093 3.81601 11.9215C3.84173 11.9825 3.86746 12.0435 3.89318 12.1044C3.82065 11.9282 3.77143 11.7447 3.74582 11.5559C3.75493 11.6238 3.76405 11.6916 3.77316 11.7594C3.74793 11.5585 3.75487 11.3545 3.75487 11.1524C3.75487 10.8155 3.75487 10.4787 3.75487 10.1418C3.75487 9.15189 3.75487 8.16194 3.75487 7.172C3.75487 6.38975 3.75487 5.60748 3.75487 4.82522C3.75487 4.64501 3.75065 4.465 3.77316 4.28572C3.76405 4.35356 3.75493 4.4214 3.74582 4.48925C3.77143 4.30044 3.82065 4.11695 3.89318 3.94075C3.86746 4.00172 3.84173 4.06267 3.81601 4.12364C3.88852 3.9522 3.98154 3.79158 4.09398 3.64325C4.05407 3.6949 4.01418 3.74654 3.97426 3.7982C4.09154 3.6465 4.22679 3.51125 4.37849 3.39397C4.32684 3.43387 4.2752 3.47378 4.22354 3.51369C4.37188 3.40123 4.53249 3.30822 4.70395 3.2357C4.64298 3.26142 4.58201 3.28715 4.52105 3.31287C4.69727 3.24034 4.88074 3.19112 5.06955 3.16551C5.00171 3.17462 4.93387 3.18375 4.86602 3.19286C5.1618 3.15573 5.46932 3.17456 5.76662 3.17456C6.26177 3.17456 6.75693 3.17456 7.25209 3.17456C7.62993 3.17456 8.00777 3.17456 8.38562 3.17456C8.80298 3.17456 9.15124 2.82629 9.15124 2.40894C9.15124 1.99158 8.80298 1.64331 8.38562 1.64331C7.62079 1.64331 6.85596 1.64331 6.09113 1.64331C5.78082 1.64331 5.47052 1.64331 5.16021 1.64331C4.35554 1.64331 3.55599 1.97923 3.00963 2.57398C2.50446 3.1239 2.22363 3.84105 2.22363 4.58831C2.22363 4.78311 2.22363 4.9779 2.22363 5.17269C2.22363 6.06544 2.22363 6.95817 2.22363 7.85092C2.22363 8.7852 2.22363 9.71948 2.22363 10.6538C2.22363 10.9005 2.22363 11.1472 2.22363 11.3939C2.22363 11.9492 2.34866 12.4901 2.63343 12.971C2.86905 13.3688 3.20021 13.6952 3.5847 13.9484C3.77752 14.0754 3.99534 14.1675 4.21101 14.2466C4.43601 14.3291 4.67163 14.3613 4.90877 14.3887C5.09937 14.4107 5.2958 14.4018 5.48743 14.4018C6.30345 14.4018 7.11946 14.4018 7.93548 14.4018C8.91385 14.4018 9.89224 14.4018 10.8706 14.4018C11.1847 14.4018 11.4988 14.4018 11.8129 14.4018C12.1369 14.4018 12.4546 14.3893 12.7736 14.3132C13.23 14.2045 13.6332 13.9676 13.9898 13.6698C14.1675 13.5214 14.307 13.3422 14.4463 13.1584C14.5502 13.0214 14.6354 12.871 14.7038 12.7135C14.7985 12.4955 14.8823 12.2821 14.9237 12.0477C14.957 11.8586 14.9821 11.6648 14.9821 11.4722C14.9821 11.3784 14.9821 11.2845 14.9821 11.1907C14.9821 10.2934 14.9821 9.39604 14.9821 8.49872C14.9821 8.41242 14.9821 8.32611 14.9821 8.23981C14.9821 7.82245 14.6338 7.47419 14.2165 7.47419C13.7991 7.47419 13.4509 7.82248 13.4509 8.23984Z" fill="white"/>
<path d="M11.082 3.17456C11.8531 3.17456 12.6241 3.17456 13.3951 3.17456C13.6691 3.17456 13.9431 3.17456 14.2172 3.17456C14.6345 3.17456 14.9828 2.82629 14.9828 2.40894C14.9828 1.99158 14.6345 1.64331 14.2172 1.64331C13.4462 1.64331 12.6751 1.64331 11.9041 1.64331C11.6301 1.64331 11.3561 1.64331 11.082 1.64331C10.6647 1.64331 10.3164 1.99158 10.3164 2.40894C10.3164 2.82629 10.6647 3.17456 11.082 3.17456Z" fill="white"/>
<path d="M14.9814 5.54409C14.9814 4.77308 14.9814 4.00206 14.9814 3.23103C14.9814 2.957 14.9814 2.68297 14.9814 2.40894C14.9814 1.99158 14.6332 1.64331 14.2158 1.64331C13.7985 1.64331 13.4502 1.99158 13.4502 2.40894C13.4502 3.17995 13.4502 3.95097 13.4502 4.722C13.4502 4.99603 13.4502 5.27006 13.4502 5.54409C13.4502 5.96145 13.7985 6.30972 14.2158 6.30972C14.6332 6.30972 14.9814 5.96145 14.9814 5.54409Z" fill="white"/>
<path d="M9.15555 8.55254C9.47471 8.23339 9.79385 7.91425 10.113 7.59509C10.7993 6.90884 11.4855 6.22257 12.1718 5.53631C12.8184 4.8897 13.465 4.2431 14.1116 3.59651C14.327 3.38112 14.5424 3.16575 14.7578 2.95035C15.0527 2.65539 15.0527 2.16257 14.7578 1.86759C14.4628 1.57262 13.97 1.57262 13.675 1.86759C13.3558 2.18675 13.0367 2.50589 12.7176 2.82504C12.0313 3.51129 11.345 4.19756 10.6588 4.88382C10.0121 5.53043 9.36554 6.17703 8.71895 6.82362C8.50357 7.03901 8.28818 7.25439 8.07279 7.46978C7.77782 7.76474 7.77782 8.25757 8.07279 8.55254C8.36776 8.84751 8.86059 8.84751 9.15555 8.55254Z" fill="white"/>
</svg>
