<svg width="91" height="159" viewBox="0 0 91 159" fill="none" xmlns="http://www.w3.org/2000/svg">
<path d="M0 159H23.5L13.4349 155.152C9.03683 153.47 5.60279 149.937 4.04732 145.492L3 142.5L0 128V159Z" fill="#0B0834"/>
<path d="M91 159H67.5L77.5651 155.152C81.9632 153.47 85.3972 149.937 86.9527 145.492L88 142.5L91 128V159Z" fill="#0B0834"/>
<path d="M69.4932 1.5H21.498C10.4534 1.5 1.5 10.4543 1.5 21.5V137.5C1.5 148.546 10.4534 157.5 21.498 157.5H69.4932C80.5378 157.5 89.4912 148.546 89.4912 137.5V21.5C89.4912 10.4543 80.5378 1.5 69.4932 1.5Z" stroke="#F8F8FF" stroke-width="3"/>
</svg>
