<svg width="91" height="160" viewBox="0 0 91 160" fill="none" xmlns="http://www.w3.org/2000/svg">
<path d="M0 159.5H23.5L13.4349 155.652C9.03683 153.97 5.60279 150.437 4.04732 145.992L3 143L0 128.5V159.5Z" fill="#F8F8FF"/>
<path d="M91 159.5H67.5L77.5651 155.652C81.9632 153.97 85.3972 150.437 86.9527 145.992L88 143L91 128.5V159.5Z" fill="#F8F8FF"/>
<path d="M69.4932 2H21.498C10.4534 2 1.5 10.9543 1.5 22V138C1.5 149.046 10.4534 158 21.498 158H69.4932C80.5378 158 89.4912 149.046 89.4912 138V22C89.4912 10.9543 80.5378 2 69.4932 2Z" stroke="#B9B9D3" stroke-width="3"/>
</svg>
