<svg width="91" height="159" viewBox="0 0 91 159" fill="none" xmlns="http://www.w3.org/2000/svg">
<path d="M1.5 130.41C1.5 136.22 1.22003 141.79 3.81977 147.97C9.96916 157.37 23.6778 157.54 45.4956 157.5C67.9234 157.5 79.1422 157.44 86.3315 149.35C89.4012 140.84 89.4912 131.06 89.4912 119.05C83.8318 113.31 73.1328 112.48 63.4938 117.59C51.375 125.93 41.786 127.24 34.9767 126.68C21.808 125.59 12.5489 117.1 5.97956 121.54C2.90986 123.59 1.5 126.32 1.5 130.41Z" fill="url(#paint0_linear_5525_15939)"/>
<path d="M69.4932 1.5H21.498C10.4534 1.5 1.5 10.4543 1.5 21.5V137.5C1.5 148.546 10.4534 157.5 21.498 157.5H69.4932C80.5378 157.5 89.4912 148.546 89.4912 137.5V21.5C89.4912 10.4543 80.5378 1.5 69.4932 1.5Z" stroke="#B9B9D3" stroke-width="3"/>
<defs>
<linearGradient id="paint0_linear_5525_15939" x1="62.9939" y1="89.4" x2="33.2717" y2="166.078" gradientUnits="userSpaceOnUse">
<stop stop-color="#AC2CCB"/>
<stop offset="0.35" stop-color="#DD3DCB"/>
<stop offset="1" stop-color="#EF9C92"/>
</linearGradient>
</defs>
</svg>
