<svg width="91" height="159" viewBox="0 0 91 159" fill="none" xmlns="http://www.w3.org/2000/svg">
<path d="M1.5 130.41C1.5 136.22 1.22 141.79 3.82 147.97C9.97 157.37 23.68 157.54 45.5 157.5C67.93 157.5 79.15 157.44 86.34 149.35C89.41 140.84 89.5 131.06 89.5 119.05C83.84 113.31 73.14 112.48 63.5 117.59C51.38 125.93 41.79 127.24 34.98 126.68C21.81 125.59 12.55 117.1 5.98 121.54C2.91 123.59 1.5 126.32 1.5 130.41Z" fill="url(#paint0_linear_5525_15936)"/>
<path d="M69.5 1.5H21.5C10.4543 1.5 1.5 10.4543 1.5 21.5V137.5C1.5 148.546 10.4543 157.5 21.5 157.5H69.5C80.5457 157.5 89.5 148.546 89.5 137.5V21.5C89.5 10.4543 80.5457 1.5 69.5 1.5Z" stroke="#F8F8FF" stroke-width="3"/>
<defs>
<linearGradient id="paint0_linear_5525_15936" x1="63" y1="89.4" x2="33.28" y2="166.08" gradientUnits="userSpaceOnUse">
<stop stop-color="#AC2CCB"/>
<stop offset="0.35" stop-color="#DD3DCB"/>
<stop offset="1" stop-color="#EF9C92"/>
</linearGradient>
</defs>
</svg>
