<svg width="1440" height="268" viewBox="0 0 1440 268" fill="none" xmlns="http://www.w3.org/2000/svg">
<path d="M-21.1904 115.825C23.5715 154.091 64.843 220.541 130.343 208.197C162.374 202.231 185.166 169.726 220.071 181.453C249.844 191.534 260.933 207.785 294.607 208.609C318.425 209.227 342.243 208.609 366.062 208.609C461.127 208.609 555.987 208.609 651.059 208.609C746.131 208.609 840.991 208.609 936.063 208.609C956.386 208.609 976.71 208.815 997.047 208.609C1011.2 209.02 1025.17 208.609 1039.13 207.58C1064.39 188.447 1084.51 164.788 1099.7 136.604C1119.42 104.099 1141.6 73.4451 1166.43 44.8488C1184.91 33.9452 1205.04 28.8021 1226.6 29.4192C1284.09 20.9843 1340.35 6.99481 1398.46 1.02869C1503.58 15.8412 1610.78 49.7863 1705.83 96.8982C1813.03 149.977 1907.68 232.268 2000.9 305.918C2058.19 351.179 2147.71 400.554 2175.22 469.473C2198.64 527.693 2183.85 596.612 2187.95 657.714C2192.26 723.753 2206.84 769.219 2245.04 824.56C2061.06 823.737 1876.88 824.56 1692.7 824.56C1256.17 824.56 819.629 824.56 383.104 824.56C174.078 824.56 -35.1527 824.56 -244.18 824.56C-336.783 824.56 -429.181 824.148 -521.784 824.56C-558.129 824.765 -594.677 825.177 -631.021 824.56C-749.29 822.914 -868.587 789.997 -985.625 773.128C-893.022 661.005 -810.068 541.272 -717.054 429.561C-665.927 368.254 -610.283 317.233 -538.622 281.642C-449.303 237.205 -344.38 230.004 -257.525 183.098C-214.407 159.646 -191.409 121.174 -155.476 90.5206C-113.179 54.1066 -61.0252 90.932 -21.1904 115.825Z" stroke="url(#paint0_linear_9_2732)" stroke-miterlimit="10"/>
<path d="M-508.438 267.447C-462.445 280.202 -416.451 295.632 -371.483 311.267C-347.049 316.822 -323.847 325.874 -301.672 338.424C-274.772 356.939 -245.411 366.403 -213.995 366.814C-176.01 354.676 -175.188 254.898 -124.061 263.744C-87.3062 270.122 -55.6864 364.345 -34.1257 390.678C-7.63797 422.771 2.62761 428.739 43.4891 429.149C84.9658 429.356 126.236 428.944 167.713 428.739C352.715 427.504 537.926 424.624 722.928 422.566C815.317 421.538 907.524 420.715 999.912 420.303C1040.36 420.098 1086.36 427.093 1125.98 420.098C1188.41 409.194 1208.12 344.802 1262.74 321.759C1315.91 299.13 1369.3 359.82 1410.58 386.152C1459.65 417.424 1504.41 408.165 1559.64 402.817C1606.66 398.291 1649.99 397.879 1695.37 382.656C1785.92 352.413 1874.62 297.277 1968.66 280.409" stroke="url(#paint1_linear_9_2732)" stroke-miterlimit="10"/>
<path d="M-463.06 249.961C-420.968 261.893 -380.518 279.997 -338.22 291.106C-308.652 296.867 -279.084 301.187 -249.106 304.478C-227.342 312.295 -205.576 314.353 -183.812 310.856C-149.522 302.626 -117.901 248.726 -79.7093 273.62C-46.2411 295.632 -29.8139 346.653 -3.53265 375.455C17.6165 398.496 31.5788 399.731 62.1733 400.554C103.65 401.582 145.332 400.142 186.808 399.731C364.419 397.879 542.027 393.97 719.642 390.885C804.446 389.444 889.447 388.21 974.449 387.592C1017.16 387.18 1068.9 394.176 1110.8 385.741C1169.72 373.809 1189.44 306.536 1241.38 283.288C1294.16 259.629 1350.83 326.491 1390.66 351.384C1432.54 377.511 1472.99 369.077 1519.4 362.493C1563.14 356.322 1608.71 355.705 1651.23 342.744C1742.8 314.765 1828.42 264.361 1922.26 244.2" stroke="url(#paint2_linear_9_2732)" stroke-miterlimit="10"/>
<path d="M-418.71 235.354C-377.848 247.286 -334.73 272.385 -292.432 277.322C-244.795 282.877 -199.623 256.955 -152.807 255.515C-129.81 254.898 -80.326 263.744 -59.587 271.973C-27.1455 285.14 -10.5133 322.376 12.6893 346.447C37.3287 372.369 46.3625 372.78 79.0105 374.015C120.692 375.66 162.785 373.397 204.467 372.78C375.301 370.311 545.931 364.963 716.762 361.053C801.567 359.202 886.371 357.35 971.373 356.527C1008.94 356.116 1061.11 364.756 1097.25 354.471C1152.68 338.629 1171.98 269.917 1222.08 246.463C1275.46 221.364 1332.35 294.192 1372.99 318.468C1411.2 341.097 1450 330.812 1491.27 322.788C1537.05 313.942 1583.67 311.267 1628.43 297.895C1712.62 272.796 1791.47 227.33 1877.9 209.843" stroke="url(#paint3_linear_9_2732)" stroke-miterlimit="10"/>
<path d="M-376.617 223.215C-339.863 234.119 -288.736 267.035 -249.928 265.595C-226.726 259.629 -205.166 249.961 -185.249 236.587C-163.485 223.215 -140.692 211.9 -116.669 202.849C-97.3684 207.169 -84.4328 236.382 -73.1391 249.342C-56.0967 268.682 -42.9561 270.533 -21.807 282.465C26.6516 309.416 41.4354 351.384 100.775 350.768C139.171 350.356 177.363 349.944 215.76 349.328C381.871 346.241 547.785 339.657 713.897 334.926C794.376 332.663 875.079 330.4 955.768 329.372C992.314 328.754 1045.91 338.012 1080.81 326.285C1132.77 309.211 1153.09 243.994 1198.47 217.866C1250.83 187.624 1293.95 245.023 1335.02 274.441C1381.62 307.769 1415.51 298.512 1467.45 286.168C1514.27 275.059 1562.31 271.768 1608.11 257.161C1683.87 232.884 1756.76 193.797 1835.19 179.19" stroke="url(#paint4_linear_9_2732)" stroke-miterlimit="10"/>
<path d="M-337.398 212.106C-308.447 220.952 -239.251 259.218 -210.505 254.898C-173.135 249.342 -121.391 145.039 -82.9946 157.588C-63.6938 163.965 -53.8384 212.311 -46.8565 227.741C-32.8943 258.19 -25.2972 274.236 3.24392 289.254C43.6939 310.444 74.4935 329.577 121.514 329.372C159.91 329.165 198.307 328.343 236.704 327.314C394.808 323.406 552.701 315.998 710.807 310.444C787.199 307.769 863.787 305.301 940.164 303.861C976.092 303.244 1019.01 309.211 1054.13 301.187C1108.73 288.843 1133.38 223.422 1174.86 190.504C1229.27 147.507 1281.01 223.01 1324.13 251.4C1361.1 275.883 1393.12 265.595 1433.37 254.692C1478.95 242.348 1525.97 237.41 1570.93 224.038C1646.09 201.819 1717.34 163.348 1794.74 149.977" stroke="url(#paint5_linear_9_2732)" stroke-miterlimit="10"/>
<path d="M-301.877 201.203C-280.933 207.58 -193.668 251.606 -174.367 244.2C-132.068 227.948 -109.482 107.802 -63.0772 124.26C-44.393 116.648 -35.1527 127.14 -35.3578 156.354C-30.8409 171.578 -26.3239 187.008 -21.807 202.231C-10.5133 240.292 -6.81804 271.356 27.2667 290.901C59.298 309.211 106.32 311.267 142.663 310.444C181.06 309.622 219.661 309.211 258.058 308.181C408.154 303.861 558.052 295.632 707.942 289.255C780.218 286.168 852.494 283.494 924.771 281.849C960.08 281.025 1003.61 287.403 1037.9 278.762C1094.77 264.361 1116.33 192.562 1161.92 160.262C1207.3 128.169 1252.88 187.213 1286.56 213.341C1335.83 251.812 1366.84 240.497 1421.46 222.392C1459.44 209.637 1497.22 207.169 1535.41 196.883C1610.36 176.72 1680.39 138.661 1757.17 125.906" stroke="url(#paint6_linear_9_2732)" stroke-miterlimit="10"/>
<path d="M-271.077 189.476C-248.901 196.471 -164.306 240.292 -142.745 232.679C-103.734 218.896 -72.5225 59.0441 -31.8674 92.5779C17.0013 132.901 -12.978 263.332 49.0327 287.608C80.8589 300.158 129.521 294.192 163.196 293.574C198.102 292.957 233.009 292.341 268.12 291.311C413.288 286.785 558.249 277.734 703.42 270.738C771.384 267.447 839.348 264.567 907.524 262.921C942.426 262.098 985.952 268.475 1019.42 259.423C1071.99 245.023 1094.77 177.75 1135.22 145.039C1188.82 101.836 1231.32 169.726 1274.44 200.791C1313.25 228.77 1344.66 217.866 1386.55 202.437C1424.74 188.447 1461.08 183.921 1500.1 174.457C1575.45 156.148 1645.27 118.294 1721.86 105.127" stroke="url(#paint7_linear_9_2732)" stroke-miterlimit="10"/>
<path d="M-245.821 175.897C-213.175 186.184 -165.126 219.307 -133.917 213.958C-109.894 226.095 -95.1099 214.369 -89.5649 178.778C-64.3103 139.895 -38.8494 101.424 -12.9768 63.1586C13.921 95.6638 18.848 133.518 27.6782 174.252C33.632 202.026 38.3554 265.184 69.1549 278.762C91.946 288.843 138.761 278.967 163.812 278.762C229.723 278.556 295.633 276.499 361.544 273.413C490.495 267.653 619.233 258.806 748.181 252.635C808.337 249.754 868.506 247.491 928.661 246.463C967.679 245.846 1002.17 251.194 1032.57 221.98C1065.21 190.299 1092.93 121.586 1139.96 112.945C1186.77 104.304 1232.56 184.538 1273.2 198.734C1307.5 210.872 1340.97 193.179 1373.61 180.423C1415.09 164.172 1458.21 162.114 1500.72 148.947C1563.95 129.403 1624.74 101.424 1690.03 89.492" stroke="url(#paint8_linear_9_2732)" stroke-miterlimit="10"/>
<path d="M-225.289 161.497C-191.409 172.606 -142.13 207.374 -109.277 201.203C-83.406 211.695 -68.0055 198.116 -63.0785 161.085C-40.6975 123.849 -16.0567 88.0519 10.8411 53.9009C33.6322 91.5492 41.4356 131.255 51.2911 174.252C57.0398 199.763 61.9683 244.406 84.9644 259.218C106.935 273.413 153.545 266.007 180.238 265.801C244.506 265.39 308.98 263.332 373.248 260.246C495.622 254.692 617.997 246.051 740.372 240.085C799.109 237.205 857.621 234.942 916.344 233.914C953.311 233.296 979.8 236.177 1008.75 210.255C1039.55 182.893 1071.78 105.539 1116.33 100.19C1166.02 94.4294 1206.88 176.515 1251.04 189.887C1285.32 200.379 1321.87 176.72 1352.05 164.583C1389.43 149.359 1428.44 147.919 1467.04 136.192C1531.52 116.854 1593.11 88.669 1659.43 76.1196" stroke="url(#paint9_linear_9_2732)" stroke-miterlimit="10"/>
<path d="M-208.246 147.095C-172.518 160.057 -121.186 198.116 -85.4593 190.504C-58.355 198.734 -42.3394 184.333 -37.6174 147.095C-18.5216 112.328 4.68094 80.8513 32.4004 52.6666C52.728 92.5779 62.1734 133.518 73.0556 176.927C79.4208 202.437 84.9644 237.822 108.579 249.961C133.218 262.509 177.158 254.898 204.672 254.692C264.423 254.28 324.174 252.017 383.72 249.342C500.341 243.994 616.775 235.971 733.392 230.21C787.606 227.536 841.806 225.478 896.217 224.45C930.515 223.833 959.673 228.358 986.78 204.494C1019.21 176.309 1049.2 106.567 1094.58 98.7497C1136.87 91.3435 1180.6 159.851 1216.54 177.339C1252.88 195.03 1287.37 171.373 1319.82 155.943C1357.19 138.044 1395.17 136.192 1434.4 124.877C1499.89 105.95 1562.31 77.5597 1629.46 64.5988" stroke="url(#paint10_linear_9_2732)" stroke-miterlimit="10"/>
<path d="M-193.873 132.901C-156.503 147.714 -101.885 190.711 -64.1054 182.687C-37.0011 190.711 -20.7803 176.515 -15.8519 140.307C0.778977 108.008 22.9549 80.0285 50.4693 56.1639C65.4583 86.4061 74.4935 115.208 83.7324 147.919C91.7409 177.132 98.1062 225.89 127.674 239.468C152.108 250.577 197.075 244.611 222.741 244.611C277.564 244.406 332.388 242.143 387.005 239.673C500.144 234.531 613.067 226.918 726.215 221.57C778.772 219.101 831.539 217.044 884.11 216.014C921.892 215.193 944.265 217.661 973.634 191.739C1000.32 168.08 1038.93 93.4008 1078.76 95.4581C1123.93 97.7212 1157.4 161.497 1198.88 174.046C1233.58 184.538 1260.88 163.76 1291.07 147.302C1330.09 125.906 1363.56 124.054 1405.24 112.328C1470.73 94.0181 1533.36 66.2447 1600.3 53.4896" stroke="url(#paint11_linear_9_2732)" stroke-miterlimit="10"/>
<path d="M-181.758 119.734C-141.925 137.221 -82.9944 186.389 -42.1342 176.72C-14.8249 182.893 1.60091 168.698 6.93947 134.135C19.4649 104.099 39.9976 81.4684 68.1286 65.8332C89.6879 111.093 99.9548 213.958 148.002 231.033C171.615 239.468 208.163 236.587 233.214 236.587C287.421 236.587 341.628 234.324 395.629 232.062C504.049 227.33 612.463 220.335 720.878 215.603C772.817 213.341 824.77 211.283 876.723 210.46C907.102 210.048 930.712 211.9 955.558 191.122C986.57 164.995 1016.75 100.807 1060.49 102.247C1100.32 103.687 1131.33 152.651 1166.43 167.875C1208.12 185.979 1238.71 156.971 1273.2 134.958C1307.29 113.151 1337.28 111.916 1375.25 102.041C1441.79 84.7601 1504.82 56.781 1572.57 44.2316" stroke="url(#paint12_linear_9_2732)" stroke-miterlimit="10"/>
<path d="M-171.286 107.596C-152.19 116.854 -133.095 126.112 -114.205 135.369C-87.9226 163.76 -57.7397 176.515 -23.2434 173.841C3.24433 180.423 19.2601 167.463 25.2138 134.752C35.6858 106.773 54.5765 87.6404 82.0909 77.7654C100.982 115.002 112.685 202.231 152.519 221.364C174.9 232.062 222.125 229.593 247.176 229.593C300.152 229.593 353.332 227.536 406.306 225.273C509.176 221.159 612.042 214.986 715.119 210.667C762.971 208.609 810.809 206.964 858.647 206.14C894.785 205.522 916.962 207.374 945.712 183.921C972.609 161.909 999.913 112.328 1036.88 109.036C1081.64 105.127 1110.38 162.32 1151.85 172.606C1188.61 181.658 1219.41 149.565 1246.73 129.609C1286.76 99.9841 1321.67 98.3382 1369.1 85.1717C1428.23 68.9192 1485.31 46.289 1545.89 35.3854" stroke="url(#paint13_linear_9_2732)" stroke-miterlimit="10"/>
<path d="M-161.841 96.6924C-141.308 107.39 -120.981 118.294 -100.448 128.992C-73.5489 160.262 -41.9291 174.869 -5.17434 172.606C19.8752 180.013 35.6858 168.491 42.2561 138.25C48.2113 115.825 61.1468 102.247 80.8592 97.5153C93.1782 87.4346 100.775 90.7264 103.65 107.802C114.944 125.7 123.363 145.039 129.316 165.612C138.147 185.568 145.127 204.7 166.686 212.93C218.84 232.884 288.448 224.038 343.27 222.392C451.071 219.512 558.657 213.546 666.256 209.02C716.145 206.964 766.047 205.112 815.935 204.082C840.781 203.466 870.964 207.785 895.403 203.054C937.903 195.03 959.463 152.033 993.958 130.021C1035.85 103.276 1064.59 136.809 1100.94 158.822C1146.94 186.801 1170.74 168.286 1208.53 137.427C1228.03 121.38 1247.95 99.5726 1271.77 90.1091C1287.18 84.143 1307.91 84.5544 1324.13 80.8513C1390.45 65.8332 1453.49 39.2943 1520.64 27.9792" stroke="url(#paint14_linear_9_2732)" stroke-miterlimit="10"/>
<path d="M-152.807 87.6404C-101.885 116.442 -47.0627 166.846 9.60943 174.252C32.812 184.126 48.0061 175.075 55.193 146.89C61.3517 127.346 73.262 115.619 90.9196 111.916C101.802 103.07 109.194 105.744 113.095 119.94C124.183 134.341 132.806 150.182 138.967 167.463C149.644 186.801 156.42 196.882 176.336 205.729C226.848 228.153 294.813 219.717 348.609 218.484C453.332 216.014 558.039 210.872 662.759 206.964C711.215 205.111 759.684 203.671 808.337 202.643C832.775 202.231 861.526 205.934 885.754 201.819C925.796 195.03 946.934 158.822 980.207 139.69C1019.83 117.06 1047.34 145.45 1082.46 164.583C1129.48 190.299 1153.09 167.051 1188.41 134.546C1207.71 116.854 1227.84 91.5492 1252.26 80.8514C1267.26 74.2681 1287.99 74.6795 1304 71.1821C1369.3 57.1925 1431.52 31.888 1497.43 21.8073" stroke="url(#paint15_linear_9_2732)" stroke-miterlimit="10"/>
<path d="M-143.362 80.4399C-97.3682 108.007 -47.0627 153.68 2.0124 172.812C82.7059 204.289 43.4877 127.963 101.392 126.523C123.567 125.906 127.263 140.924 140.405 158.822C156.214 180.218 163.606 189.887 187.219 199.351C239.167 219.924 293.991 216.221 348.609 215.193C452.307 213.34 555.988 208.815 659.683 205.522C707.731 204.082 755.78 202.643 803.618 202.026C828.463 201.614 856.188 204.906 880.824 200.791C918.198 194.619 938.732 160.057 972.805 146.89C1010.39 132.283 1038.52 161.085 1071.99 174.252C1115.11 190.916 1135.43 166.435 1165.83 136.192C1186.15 116.031 1205.45 87.0232 1231.73 73.6508C1246.92 66.0388 1266.43 66.0388 1282.66 62.9528C1347.74 50.1977 1409.75 25.9218 1475.66 16.4583" stroke="url(#paint16_linear_9_2732)" stroke-miterlimit="10"/>
<path d="M-133.301 75.7082C-86.0745 105.539 -34.3322 154.708 16.5899 175.692C92.1513 206.964 56.2182 142.569 110.425 141.953C139.378 141.541 159.294 182.276 187.014 192.767C243.891 214.163 297.071 213.546 357.232 212.518C457.433 211.078 557.434 207.58 657.632 204.906C705.274 203.671 753.111 202.643 800.738 202.026C825.177 201.819 853.52 205.522 877.537 201.614C908.745 196.676 929.279 171.784 957.623 160.674C993.55 146.479 1020.04 166.846 1052.89 178.778C1103.4 197.293 1127.62 160.057 1160.07 123.437C1194.16 84.966 1214.07 63.7759 1264.58 55.1353C1329.68 43.8203 1391.69 20.1615 1457.18 11.7266" stroke="url(#paint17_linear_9_2732)" stroke-miterlimit="10"/>
<path d="M-121.803 73.8566C-73.5493 105.745 -23.6553 154.091 27.8833 178.572C95.8478 210.872 65.8698 163.965 115.97 157.999C140.405 154.914 168.534 182.275 192.558 189.271C221.715 197.705 249.434 210.048 280.234 211.695C306.721 213.135 333.619 211.49 359.902 211.283C458.458 210.255 556.816 207.374 655.371 205.522C702.183 204.494 749.207 203.877 796.019 203.466C820.458 203.259 847.354 206.345 871.582 203.466C900.332 199.968 921.274 180.423 948.381 172.606C982.468 162.732 1007.31 177.955 1039.13 186.801C1090.88 200.998 1114.09 160.674 1145.29 122.82C1178.55 82.4972 1198.06 57.1926 1250 48.7577C1314.07 38.4714 1375.47 16.2527 1440.14 8.64069" stroke="url(#paint18_linear_9_2732)" stroke-miterlimit="10"/>
<path d="M-108.045 74.8853C-60.2035 108.008 -10.9247 157.588 40.4089 183.305C54.1661 187.419 67.9219 191.739 81.6791 195.853C91.9461 179.807 105.498 171.989 121.924 172.606C144.922 169.931 176.541 181.865 199.539 186.391C229.928 192.562 254.363 208.815 286.394 210.255C310.007 211.283 334.03 210.255 357.644 210.048C456.408 209.432 554.962 207.374 653.728 205.934C700.751 205.317 747.563 204.7 794.587 204.494C816.961 204.494 839.559 205.729 861.722 204.494C891.905 202.849 916.344 188.036 945.502 182.686C973.423 177.544 996.836 186.596 1023.73 192.562C1077.33 204.289 1098.68 166.228 1129.27 126.935C1161.52 85.3775 1182.05 50.6093 1235.63 43.2031C1299.69 34.3568 1361.29 12.5495 1425.78 5.7605" stroke="url(#paint19_linear_9_2732)" stroke-miterlimit="10"/>
<path d="M-91.8247 79.2055C-68.8272 95.8697 -46.0362 112.328 -23.0387 128.992C2.42236 149.358 28.0885 169.726 53.5495 189.887C82.9123 204.289 90.9194 194.002 117.407 186.596C142.252 179.602 182.907 180.013 207.752 184.333C236.087 189.271 255.8 207.992 285.983 209.432C310.212 210.667 334.851 209.432 359.08 209.432C456.815 209.02 554.555 207.58 652.295 206.757C697.254 206.345 742.437 205.934 787.395 205.934C810.191 205.934 833.183 206.552 856.189 206.345C885.543 205.934 910.599 195.442 939.35 192.357C966.246 189.476 990.671 197.088 1016.96 199.763C1065.01 204.7 1083.48 175.075 1111.4 137.838C1132.77 109.448 1152.06 68.7135 1183.27 50.6093C1202.37 39.4999 1217.15 39.4999 1239.54 35.7968C1298.05 26.3334 1354.93 9.46362 1414.27 3.4975" stroke="url(#paint20_linear_9_2732)" stroke-miterlimit="10"/>
<path d="M-72.3174 87.229C-50.553 103.687 -28.5822 120.146 -6.81786 136.604C17.2063 156.559 41.2292 176.309 65.2534 196.265C85.3759 205.522 102.008 202.643 122.129 197.911C145.537 192.357 181.47 177.339 205.083 179.395C233.624 181.865 254.978 206.14 284.956 208.815C309.597 211.078 335.468 209.02 360.312 208.815C457.433 208.815 554.555 207.785 651.677 207.374C746.749 206.757 840.584 206.345 935.038 200.379C961.316 198.734 986.57 202.849 1012.65 204.494C1062.95 207.58 1084.72 166.023 1111.61 127.552C1129.07 102.453 1146.73 69.7421 1171.57 51.2265C1191.49 36.414 1202.78 36.8254 1227.84 32.7109C1287.37 23.2474 1345.69 7.40627 1405.86 1.64587" stroke="url(#paint21_linear_9_2732)" stroke-miterlimit="10"/>
<path d="M-48.9097 99.3669C2.4225 140.101 53.5496 216.633 125.826 205.729C153.135 201.614 183.318 174.046 211.448 179.19C226.232 185.156 239.989 192.974 252.72 202.231C265.45 208.609 278.796 210.872 292.964 208.815C318.425 210.872 344.913 208.815 370.374 208.815C464.006 208.815 557.631 208.403 651.059 208.197C744.895 207.992 838.52 208.197 932.159 205.934C957.819 205.317 984.926 210.048 1010.59 207.785C1066.44 203.259 1083.89 160.674 1114.69 116.648C1131.53 88.0519 1152.06 62.3357 1176.09 39.2941C1195.8 34.3567 1215.93 30.8594 1236.25 28.8021C1291.28 19.9557 1345.07 6.37763 1400.51 1.02869" stroke="url(#paint22_linear_9_2732)" stroke-miterlimit="10"/>
<path d="M1336.86 9.25787C1437.88 26.9505 1544.25 69.1248 1635.41 115.208C1739.3 167.668 1823.7 260.658 1909.94 336.778C1965.99 386.359 2046.49 433.882 2081.8 500.743C2109.11 552.381 2111.78 613.07 2125.94 668.824C2141.14 728.279 2163.31 774.362 2199.86 824.56" stroke="url(#paint23_linear_9_2732)" stroke-miterlimit="10"/>
<path d="M1256.38 24.276C1349.59 64.3932 1448.56 98.3383 1536.65 149.359C1632.34 204.906 1699.88 312.707 1773.6 392.118C1826.99 449.722 1891.05 497.246 1943.61 555.055C2019.38 638.581 2065.38 741.858 2144.21 824.354" stroke="url(#paint24_linear_9_2732)" stroke-miterlimit="10"/>
<path d="M1191.28 33.7394C1277.94 82.2914 1372.8 118.5 1456.98 170.754C1547.53 226.918 1600.71 346.447 1664.98 427.709C1714.05 489.839 1769.29 539.625 1829.45 590.646C1916.51 664.503 1998.03 744.532 2079.53 824.354" stroke="url(#paint25_linear_9_2732)" stroke-miterlimit="10"/>
<path d="M1140.77 75.9139C1229.27 110.888 1324.34 127.963 1405.86 181.041C1493.32 237.822 1542.81 349.738 1605.44 429.972C1654.92 493.337 1713.03 545.386 1772.77 598.67C1853.67 670.881 1930.67 746.795 2006.23 824.56" stroke="url(#paint26_linear_9_2732)" stroke-miterlimit="10"/>
<path d="M1078.55 167.258C1155.35 132.283 1281.63 160.469 1349.38 202.231C1432.95 253.457 1482.64 360.025 1541.98 434.498C1587.98 492.309 1641.16 540.448 1695.16 590.646C1775.25 664.915 1850.19 744.531 1924.71 824.354" stroke="url(#paint27_linear_9_2732)" stroke-miterlimit="10"/>
<path d="M1028.66 208.815C1112.44 168.286 1213.26 158.206 1294.97 211.078C1374.03 262.098 1419.2 362.493 1475.26 435.115C1521.45 494.983 1576.07 544.358 1629.25 597.642C1701.52 670.057 1768.06 748.235 1836.23 824.56" stroke="url(#paint28_linear_9_2732)" stroke-miterlimit="10"/>
<path d="M988.831 208.815C1044.67 138.249 1145.29 107.802 1224.13 159.851C1299.5 209.637 1338.5 313.53 1389.22 384.917C1435.62 450.133 1495.99 501.361 1545.27 563.696C1612.62 649.073 1672.17 740.006 1740.95 824.354" stroke="url(#paint29_linear_9_2732)" stroke-miterlimit="10"/>
<path d="M949.195 208.815C985.333 128.992 1068.71 58.427 1155.14 117.471C1226.81 166.435 1257.19 272.796 1302.57 343.155C1343.23 406.313 1399.29 455.278 1442.6 515.968C1513.85 615.54 1566.83 726.016 1639.94 824.56" stroke="url(#paint30_linear_9_2732)" stroke-miterlimit="10"/>
<path d="M909.363 208.815C945.094 137.015 1029.48 127.14 1092.1 171.373C1159.45 218.896 1191.08 316.205 1234.4 383.066C1270.96 439.23 1317.96 484.491 1358.22 537.569C1425.35 626.444 1468.68 733.217 1533.36 824.354" stroke="url(#paint31_linear_9_2732)" stroke-miterlimit="10"/>
<path d="M869.742 208.815C917.369 176.515 986.162 217.044 1025.38 245.639C1091.91 294.192 1125.38 380.598 1171.78 446.431C1207.09 496.217 1252.26 538.185 1286.14 588.59C1336.86 664.091 1370.94 748.852 1422.69 824.354" stroke="url(#paint32_linear_9_2732)" stroke-miterlimit="10"/>
<path d="M829.896 208.815C865.43 179.395 941.4 232.268 967.271 253.457C1024.97 300.775 1051.87 381.833 1089.65 443.962C1124.55 501.361 1172.81 550.324 1204.02 609.574C1241.38 680.55 1266.84 755.023 1307.91 824.56" stroke="url(#paint33_linear_9_2732)" stroke-miterlimit="10"/>
<path d="M790.064 208.815C821.483 180.423 888.633 234.531 908.956 254.28C959.462 303.45 979.182 382.244 1010.39 443.551C1037.69 497.246 1076.5 544.151 1101.75 598.464C1136.05 672.115 1154.54 750.703 1190.25 824.354" stroke="url(#paint34_linear_9_2732)" stroke-miterlimit="10"/>
<path d="M750.442 208.815C777.549 182.481 835.851 239.057 850.233 256.132C889.658 302.626 901.765 370.929 923.324 426.476C944.687 481.816 977.117 531.808 999.098 586.738C1029.69 663.27 1040.77 746.795 1070.14 824.56" stroke="url(#paint35_linear_9_2732)" stroke-miterlimit="10"/>
<path d="M710.611 208.815C734.839 184.538 780.626 243.788 790.486 258.806C827.031 313.942 832.368 391.502 851.666 453.631C865.009 496.628 885.754 537.364 898.689 580.36C922.707 659.36 926.4 744.326 947.974 824.56" stroke="url(#paint36_linear_9_2732)" stroke-miterlimit="10"/>
<path d="M670.976 208.815C693.967 191.739 723.546 245.434 731.145 261.069C756.805 315.177 755.977 387.181 767.283 444.991C775.696 488.399 790.682 530.163 799.517 573.571C815.935 655.657 812.242 741.651 825.584 824.56" stroke="url(#paint37_linear_9_2732)" stroke-miterlimit="10"/>
<path d="M631.144 208.815C649.416 195.648 667.9 254.692 670.568 264.567C685.344 318.88 679.599 380.186 683.911 436.145C687.408 479.965 695.611 522.757 700.54 566.371C710.189 650.925 697.254 739.388 701.987 824.56" stroke="url(#paint38_linear_9_2732)" stroke-miterlimit="10"/>
<path d="M591.508 208.815C604.247 204.082 609.991 259.424 610.609 267.654C614.921 323.406 604.654 381.009 603.011 436.762C601.775 479.965 604.247 522.962 603.84 566.165C603.011 651.954 583.502 738.36 579.19 824.354" stroke="url(#paint39_linear_9_2732)" stroke-miterlimit="10"/>
<path d="M551.676 208.815C554.962 220.336 552.504 254.692 550.454 270.945C527.855 456.718 485.355 639.611 457.222 824.354" stroke="url(#paint40_linear_9_2732)" stroke-miterlimit="10"/>
<path d="M512.055 208.815C500.144 219.512 496.029 257.572 490.903 273.825C472.827 331.635 454.357 388.622 439.778 447.665C408.359 574.188 368.936 698.037 337.316 824.56" stroke="url(#paint41_linear_9_2732)" stroke-miterlimit="10"/>
<path d="M472.222 208.815C451.885 219.512 441.211 257.778 431.351 277.322C401.584 335.338 378.586 395.821 356.617 457.129C312.675 580.361 262.37 700.917 219.456 824.56" stroke="url(#paint42_linear_9_2732)" stroke-miterlimit="10"/>
<path d="M432.377 208.815C407.333 217.249 385.978 260.246 372.428 279.791C338.958 327.932 313.497 379.981 288.448 432.854C226.848 563.284 162.786 692.482 104.677 824.354" stroke="url(#paint43_linear_9_2732)" stroke-miterlimit="10"/>
<path d="M392.755 208.815C361.956 219.101 334.646 259.218 314.524 282.26C270.173 332.663 237.936 391.502 204.467 449.312C132.806 573.776 61.1467 697.419 -5.79102 824.354" stroke="url(#paint44_linear_9_2732)" stroke-miterlimit="10"/>
<path d="M352.92 208.815C316.987 220.952 283.724 259.423 257.236 284.317C204.262 334.103 165.454 397.262 125.004 457.129C43.0774 578.097 -35.7693 699.682 -112.152 824.56" stroke="url(#paint45_linear_9_2732)" stroke-miterlimit="10"/>
<path d="M313.292 208.815C272.637 222.804 233.829 259.013 201.182 285.552C142.251 333.28 98.5163 397.468 52.5227 457.129C-40.4912 577.274 -126.936 699.271 -213.175 824.354" stroke="url(#paint46_linear_9_2732)" stroke-miterlimit="10"/>
<path d="M273.457 208.815C228.49 224.244 184.14 258.601 146.153 286.168C82.5006 332.251 34.2486 397.262 -16.6735 456.511C-59.1769 505.887 -104.555 552.999 -145.005 604.225C-201.676 676.023 -253.213 751.938 -308.447 824.56" stroke="url(#paint47_linear_9_2732)" stroke-miterlimit="10"/>
<path d="M233.829 189.682C190.505 223.833 141.637 259.835 92.9731 284.933C36.5074 314.147 -31.6621 305.096 -89.9761 331.84C-150.137 359.408 -199.417 407.137 -230.832 465.152C-294.485 582.417 -326.106 710.175 -396.944 824.354" stroke="url(#paint48_linear_9_2732)" stroke-miterlimit="10"/>
<path d="M193.996 179.807C182.702 189.887 166.481 195.648 152.929 203.054C115.971 223.215 81.2692 257.161 42.4625 272.178C-22.8333 297.484 -100.858 257.572 -169.849 275.471C-240.482 293.781 -285.449 342.744 -314.607 407.755C-376.411 546.003 -402.694 691.865 -478.255 824.354" stroke="url(#paint49_linear_9_2732)" stroke-miterlimit="10"/>
<path d="M154.367 199.351C141.225 120.351 72.2338 90.3148 6.52924 137.221C-79.5043 198.528 -149.727 292.341 -219.54 370.311C-269.229 425.858 -325.694 478.935 -367.788 540.655C-431.645 634.466 -482.156 734.245 -551.557 824.56" stroke="url(#paint50_linear_9_2732)" stroke-miterlimit="10"/>
<path d="M114.532 208.815C104.472 130.638 35.2754 38.0598 -46.2411 99.5726C-89.5648 132.283 -123.034 184.128 -155.271 226.918C-199.006 285.14 -241.099 344.39 -285.656 401.994C-333.498 463.918 -389.552 519.054 -437.599 580.566C-499.815 660.388 -551.969 746.384 -616.648 824.56" stroke="url(#paint51_linear_9_2732)" stroke-miterlimit="10"/>
<path d="M66.6902 195.442C-8.04956 144.832 -83.1995 182.275 -154.039 219.719C-240.483 265.596 -341.095 276.499 -427.949 323.817C-483.388 354.059 -539.443 393.558 -568.806 450.752C-596.73 505.269 -610.076 570.692 -627.94 628.707C-649.294 698.449 -672.702 755.024 -710.483 816.948" stroke="url(#paint52_linear_9_2732)" stroke-miterlimit="10"/>
<defs>
<linearGradient id="paint0_linear_9_2732" x1="629.711" y1="1.02869" x2="629.711" y2="824.886" gradientUnits="userSpaceOnUse">
<stop stop-color="#383467"/>
<stop offset="1" stop-color="#57538E" stop-opacity="0.59"/>
</linearGradient>
<linearGradient id="paint1_linear_9_2732" x1="730.105" y1="263.189" x2="730.105" y2="429.205" gradientUnits="userSpaceOnUse">
<stop stop-color="#383467"/>
<stop offset="1" stop-color="#57538E" stop-opacity="0.59"/>
</linearGradient>
<linearGradient id="paint2_linear_9_2732" x1="729.6" y1="244.2" x2="729.6" y2="400.916" gradientUnits="userSpaceOnUse">
<stop stop-color="#383467"/>
<stop offset="1" stop-color="#57538E" stop-opacity="0.59"/>
</linearGradient>
<linearGradient id="paint3_linear_9_2732" x1="729.6" y1="209.843" x2="729.6" y2="374.604" gradientUnits="userSpaceOnUse">
<stop stop-color="#383467"/>
<stop offset="1" stop-color="#57538E" stop-opacity="0.59"/>
</linearGradient>
<linearGradient id="paint4_linear_9_2732" x1="729.291" y1="179.19" x2="729.291" y2="350.773" gradientUnits="userSpaceOnUse">
<stop stop-color="#383467"/>
<stop offset="1" stop-color="#57538E" stop-opacity="0.59"/>
</linearGradient>
<linearGradient id="paint5_linear_9_2732" x1="728.673" y1="149.977" x2="728.673" y2="329.373" gradientUnits="userSpaceOnUse">
<stop stop-color="#383467"/>
<stop offset="1" stop-color="#57538E" stop-opacity="0.59"/>
</linearGradient>
<linearGradient id="paint6_linear_9_2732" x1="727.647" y1="121.866" x2="727.647" y2="310.594" gradientUnits="userSpaceOnUse">
<stop stop-color="#383467"/>
<stop offset="1" stop-color="#57538E" stop-opacity="0.59"/>
</linearGradient>
<linearGradient id="paint7_linear_9_2732" x1="725.386" y1="87.9655" x2="725.386" y2="295.53" gradientUnits="userSpaceOnUse">
<stop stop-color="#383467"/>
<stop offset="1" stop-color="#57538E" stop-opacity="0.59"/>
</linearGradient>
<linearGradient id="paint8_linear_9_2732" x1="722.099" y1="63.1586" x2="722.099" y2="283.288" gradientUnits="userSpaceOnUse">
<stop stop-color="#383467"/>
<stop offset="1" stop-color="#57538E" stop-opacity="0.59"/>
</linearGradient>
<linearGradient id="paint9_linear_9_2732" x1="717.072" y1="53.9009" x2="717.072" y2="267.915" gradientUnits="userSpaceOnUse">
<stop stop-color="#383467"/>
<stop offset="1" stop-color="#57538E" stop-opacity="0.59"/>
</linearGradient>
<linearGradient id="paint10_linear_9_2732" x1="710.611" y1="52.6666" x2="710.611" y2="257.166" gradientUnits="userSpaceOnUse">
<stop stop-color="#383467"/>
<stop offset="1" stop-color="#57538E" stop-opacity="0.59"/>
</linearGradient>
<linearGradient id="paint11_linear_9_2732" x1="703.209" y1="53.4896" x2="703.209" y2="246.211" gradientUnits="userSpaceOnUse">
<stop stop-color="#383467"/>
<stop offset="1" stop-color="#57538E" stop-opacity="0.59"/>
</linearGradient>
<linearGradient id="paint12_linear_9_2732" x1="695.414" y1="44.2316" x2="695.414" y2="237.062" gradientUnits="userSpaceOnUse">
<stop stop-color="#383467"/>
<stop offset="1" stop-color="#57538E" stop-opacity="0.59"/>
</linearGradient>
<linearGradient id="paint13_linear_9_2732" x1="687.296" y1="35.3854" x2="687.296" y2="229.839" gradientUnits="userSpaceOnUse">
<stop stop-color="#383467"/>
<stop offset="1" stop-color="#57538E" stop-opacity="0.59"/>
</linearGradient>
<linearGradient id="paint14_linear_9_2732" x1="679.389" y1="27.9792" x2="679.389" y2="225.763" gradientUnits="userSpaceOnUse">
<stop stop-color="#383467"/>
<stop offset="1" stop-color="#57538E" stop-opacity="0.59"/>
</linearGradient>
<linearGradient id="paint15_linear_9_2732" x1="672.31" y1="21.8073" x2="672.31" y2="221.056" gradientUnits="userSpaceOnUse">
<stop stop-color="#383467"/>
<stop offset="1" stop-color="#57538E" stop-opacity="0.59"/>
</linearGradient>
<linearGradient id="paint16_linear_9_2732" x1="666.158" y1="16.4583" x2="666.158" y2="216.118" gradientUnits="userSpaceOnUse">
<stop stop-color="#383467"/>
<stop offset="1" stop-color="#57538E" stop-opacity="0.59"/>
</linearGradient>
<linearGradient id="paint17_linear_9_2732" x1="661.944" y1="11.7266" x2="661.944" y2="212.913" gradientUnits="userSpaceOnUse">
<stop stop-color="#383467"/>
<stop offset="1" stop-color="#57538E" stop-opacity="0.59"/>
</linearGradient>
<linearGradient id="paint18_linear_9_2732" x1="659.163" y1="8.64069" x2="659.163" y2="212.279" gradientUnits="userSpaceOnUse">
<stop stop-color="#383467"/>
<stop offset="1" stop-color="#57538E" stop-opacity="0.59"/>
</linearGradient>
<linearGradient id="paint19_linear_9_2732" x1="658.868" y1="5.7605" x2="658.868" y2="210.704" gradientUnits="userSpaceOnUse">
<stop stop-color="#383467"/>
<stop offset="1" stop-color="#57538E" stop-opacity="0.59"/>
</linearGradient>
<linearGradient id="paint20_linear_9_2732" x1="661.228" y1="3.4975" x2="661.228" y2="209.981" gradientUnits="userSpaceOnUse">
<stop stop-color="#383467"/>
<stop offset="1" stop-color="#57538E" stop-opacity="0.59"/>
</linearGradient>
<linearGradient id="paint21_linear_9_2732" x1="666.762" y1="1.64587" x2="666.762" y2="209.867" gradientUnits="userSpaceOnUse">
<stop stop-color="#383467"/>
<stop offset="1" stop-color="#57538E" stop-opacity="0.59"/>
</linearGradient>
<linearGradient id="paint22_linear_9_2732" x1="675.807" y1="1.02869" x2="675.807" y2="209.728" gradientUnits="userSpaceOnUse">
<stop stop-color="#383467"/>
<stop offset="1" stop-color="#57538E" stop-opacity="0.59"/>
</linearGradient>
<linearGradient id="paint23_linear_9_2732" x1="1768.36" y1="9.25787" x2="1768.36" y2="824.56" gradientUnits="userSpaceOnUse">
<stop stop-color="#383467"/>
<stop offset="1" stop-color="#57538E" stop-opacity="0.59"/>
</linearGradient>
<linearGradient id="paint24_linear_9_2732" x1="1700.3" y1="24.276" x2="1700.3" y2="824.354" gradientUnits="userSpaceOnUse">
<stop stop-color="#383467"/>
<stop offset="1" stop-color="#57538E" stop-opacity="0.59"/>
</linearGradient>
<linearGradient id="paint25_linear_9_2732" x1="1635.41" y1="33.7394" x2="1635.41" y2="824.354" gradientUnits="userSpaceOnUse">
<stop stop-color="#383467"/>
<stop offset="1" stop-color="#57538E" stop-opacity="0.59"/>
</linearGradient>
<linearGradient id="paint26_linear_9_2732" x1="1573.5" y1="75.9139" x2="1573.5" y2="824.56" gradientUnits="userSpaceOnUse">
<stop stop-color="#383467"/>
<stop offset="1" stop-color="#57538E" stop-opacity="0.59"/>
</linearGradient>
<linearGradient id="paint27_linear_9_2732" x1="1501.63" y1="151.459" x2="1501.63" y2="824.354" gradientUnits="userSpaceOnUse">
<stop stop-color="#383467"/>
<stop offset="1" stop-color="#57538E" stop-opacity="0.59"/>
</linearGradient>
<linearGradient id="paint28_linear_9_2732" x1="1432.45" y1="174.859" x2="1432.45" y2="824.56" gradientUnits="userSpaceOnUse">
<stop stop-color="#383467"/>
<stop offset="1" stop-color="#57538E" stop-opacity="0.59"/>
</linearGradient>
<linearGradient id="paint29_linear_9_2732" x1="1364.89" y1="133.697" x2="1364.89" y2="824.354" gradientUnits="userSpaceOnUse">
<stop stop-color="#383467"/>
<stop offset="1" stop-color="#57538E" stop-opacity="0.59"/>
</linearGradient>
<linearGradient id="paint30_linear_9_2732" x1="1294.57" y1="95.5858" x2="1294.57" y2="824.56" gradientUnits="userSpaceOnUse">
<stop stop-color="#383467"/>
<stop offset="1" stop-color="#57538E" stop-opacity="0.59"/>
</linearGradient>
<linearGradient id="paint31_linear_9_2732" x1="1221.36" y1="144.764" x2="1221.36" y2="824.354" gradientUnits="userSpaceOnUse">
<stop stop-color="#383467"/>
<stop offset="1" stop-color="#57538E" stop-opacity="0.59"/>
</linearGradient>
<linearGradient id="paint32_linear_9_2732" x1="1146.21" y1="196.9" x2="1146.21" y2="824.354" gradientUnits="userSpaceOnUse">
<stop stop-color="#383467"/>
<stop offset="1" stop-color="#57538E" stop-opacity="0.59"/>
</linearGradient>
<linearGradient id="paint33_linear_9_2732" x1="1068.9" y1="200.113" x2="1068.9" y2="824.56" gradientUnits="userSpaceOnUse">
<stop stop-color="#383467"/>
<stop offset="1" stop-color="#57538E" stop-opacity="0.59"/>
</linearGradient>
<linearGradient id="paint34_linear_9_2732" x1="990.165" y1="200.745" x2="990.165" y2="824.354" gradientUnits="userSpaceOnUse">
<stop stop-color="#383467"/>
<stop offset="1" stop-color="#57538E" stop-opacity="0.59"/>
</linearGradient>
<linearGradient id="paint35_linear_9_2732" x1="910.29" y1="201.937" x2="910.29" y2="824.56" gradientUnits="userSpaceOnUse">
<stop stop-color="#383467"/>
<stop offset="1" stop-color="#57538E" stop-opacity="0.59"/>
</linearGradient>
<linearGradient id="paint36_linear_9_2732" x1="829.292" y1="203.046" x2="829.292" y2="824.56" gradientUnits="userSpaceOnUse">
<stop stop-color="#383467"/>
<stop offset="1" stop-color="#57538E" stop-opacity="0.59"/>
</linearGradient>
<linearGradient id="paint37_linear_9_2732" x1="748.28" y1="205.5" x2="748.28" y2="824.56" gradientUnits="userSpaceOnUse">
<stop stop-color="#383467"/>
<stop offset="1" stop-color="#57538E" stop-opacity="0.59"/>
</linearGradient>
<linearGradient id="paint38_linear_9_2732" x1="667.689" y1="206.91" x2="667.689" y2="824.56" gradientUnits="userSpaceOnUse">
<stop stop-color="#383467"/>
<stop offset="1" stop-color="#57538E" stop-opacity="0.59"/>
</linearGradient>
<linearGradient id="paint39_linear_9_2732" x1="595.427" y1="208.528" x2="595.427" y2="824.354" gradientUnits="userSpaceOnUse">
<stop stop-color="#383467"/>
<stop offset="1" stop-color="#57538E" stop-opacity="0.59"/>
</linearGradient>
<linearGradient id="paint40_linear_9_2732" x1="505.257" y1="208.815" x2="505.257" y2="824.354" gradientUnits="userSpaceOnUse">
<stop stop-color="#383467"/>
<stop offset="1" stop-color="#57538E" stop-opacity="0.59"/>
</linearGradient>
<linearGradient id="paint41_linear_9_2732" x1="424.68" y1="208.815" x2="424.68" y2="824.56" gradientUnits="userSpaceOnUse">
<stop stop-color="#383467"/>
<stop offset="1" stop-color="#57538E" stop-opacity="0.59"/>
</linearGradient>
<linearGradient id="paint42_linear_9_2732" x1="345.837" y1="208.815" x2="345.837" y2="824.56" gradientUnits="userSpaceOnUse">
<stop stop-color="#383467"/>
<stop offset="1" stop-color="#57538E" stop-opacity="0.59"/>
</linearGradient>
<linearGradient id="paint43_linear_9_2732" x1="268.53" y1="208.815" x2="268.53" y2="824.354" gradientUnits="userSpaceOnUse">
<stop stop-color="#383467"/>
<stop offset="1" stop-color="#57538E" stop-opacity="0.59"/>
</linearGradient>
<linearGradient id="paint44_linear_9_2732" x1="193.483" y1="208.815" x2="193.483" y2="824.354" gradientUnits="userSpaceOnUse">
<stop stop-color="#383467"/>
<stop offset="1" stop-color="#57538E" stop-opacity="0.59"/>
</linearGradient>
<linearGradient id="paint45_linear_9_2732" x1="120.385" y1="208.815" x2="120.385" y2="824.56" gradientUnits="userSpaceOnUse">
<stop stop-color="#383467"/>
<stop offset="1" stop-color="#57538E" stop-opacity="0.59"/>
</linearGradient>
<linearGradient id="paint46_linear_9_2732" x1="50.0592" y1="208.815" x2="50.0592" y2="824.354" gradientUnits="userSpaceOnUse">
<stop stop-color="#383467"/>
<stop offset="1" stop-color="#57538E" stop-opacity="0.59"/>
</linearGradient>
<linearGradient id="paint47_linear_9_2732" x1="-17.4952" y1="208.815" x2="-17.4952" y2="824.56" gradientUnits="userSpaceOnUse">
<stop stop-color="#383467"/>
<stop offset="1" stop-color="#57538E" stop-opacity="0.59"/>
</linearGradient>
<linearGradient id="paint48_linear_9_2732" x1="-81.5574" y1="189.682" x2="-81.5574" y2="824.354" gradientUnits="userSpaceOnUse">
<stop stop-color="#383467"/>
<stop offset="1" stop-color="#57538E" stop-opacity="0.59"/>
</linearGradient>
<linearGradient id="paint49_linear_9_2732" x1="-142.13" y1="179.807" x2="-142.13" y2="824.354" gradientUnits="userSpaceOnUse">
<stop stop-color="#383467"/>
<stop offset="1" stop-color="#57538E" stop-opacity="0.59"/>
</linearGradient>
<linearGradient id="paint50_linear_9_2732" x1="-198.596" y1="114.908" x2="-198.596" y2="824.56" gradientUnits="userSpaceOnUse">
<stop stop-color="#383467"/>
<stop offset="1" stop-color="#57538E" stop-opacity="0.59"/>
</linearGradient>
<linearGradient id="paint51_linear_9_2732" x1="-251.057" y1="79.5316" x2="-251.057" y2="824.56" gradientUnits="userSpaceOnUse">
<stop stop-color="#383467"/>
<stop offset="1" stop-color="#57538E" stop-opacity="0.59"/>
</linearGradient>
<linearGradient id="paint52_linear_9_2732" x1="-321.897" y1="170.885" x2="-321.897" y2="816.948" gradientUnits="userSpaceOnUse">
<stop stop-color="#383467"/>
<stop offset="1" stop-color="#57538E" stop-opacity="0.59"/>
</linearGradient>
</defs>
</svg>
