<svg width="954" height="195" viewBox="0 0 954 195" fill="none" xmlns="http://www.w3.org/2000/svg">
<g opacity="0.4">
<path d="M1124.52 157.717C706.468 156.815 287.816 152.729 -130.183 157.104" stroke="#FF00FF" stroke-width="0.32" stroke-miterlimit="10"/>
<path d="M1128.76 153.885C919.152 142.439 706.783 149.862 496.174 152.596C399.648 153.849 305.36 146.525 208.845 146.832C160.114 146.985 111.329 147.238 62.6526 149.222C-2.74195 151.874 -69.1257 148.482 -134.031 154.165" stroke="#FF00FF" stroke-width="0.32" stroke-miterlimit="10"/>
<path d="M1139.54 151.621C1067.27 145.127 1002.29 134.709 929.446 138.091C882.704 140.265 835.898 143.016 789.134 143.567C690.901 144.73 592.168 145.704 493.956 147.797C449.519 148.744 403.593 154.95 359.819 146.823C302.686 136.215 259.227 137.189 200.692 138.876C153.472 140.238 106.013 139.282 58.8477 142.484C-7.93831 147.084 -77.5288 142.692 -142.782 153.443" stroke="#FF00FF" stroke-width="0.32" stroke-miterlimit="10"/>
<path d="M1154.97 150.547C1080.56 142.321 1013.19 127.474 937.957 130.496C885.292 132.615 832.517 133.039 779.852 135.628C682.945 140.382 587.766 140.67 490.826 143.133C440.617 144.405 395.419 150.872 346.786 138.523C296.958 125.895 261.684 128.223 210.736 131.722C158.114 135.33 104.916 131.722 52.3913 136.846C-16.8187 143.602 -88.0614 138.713 -154.728 154.462" stroke="#FF00FF" stroke-width="0.32" stroke-miterlimit="10"/>
<path d="M1172.95 150.051C1096.53 140.86 1025.69 123.171 948.045 124.299C896.955 125.038 845.681 122.792 794.711 126.247C742.741 129.765 692.814 139.552 640.355 140.49C589.266 141.392 538.241 137.08 487.239 138.442C431.171 139.895 386.332 149.501 333.905 129.368C285.544 110.796 251.031 122.684 200.203 126.942C149.113 131.217 97.3714 125.408 46.3906 131.695C-26.2544 140.643 -99.345 135.673 -168.435 156.239" stroke="#FF00FF" stroke-width="0.32" stroke-miterlimit="10"/>
<path d="M1191.45 149.682C1105.57 139.245 1026.99 121.521 939.772 118.815C890.759 117.3 841.669 112.862 792.7 117.733C742.697 122.712 696.467 136.016 645.649 137.369C591.679 138.803 537.785 132.571 483.836 133.86C420.964 135.367 380.451 146.056 323.97 120.881C278.663 100.685 252.651 114.422 205.485 121.557C158.32 128.692 108.741 120.042 61.0107 124.552C26.3786 127.826 -4.26427 136.747 -39.6356 136.774C-94.4753 136.774 -131.977 140.445 -182.273 158.115" stroke="#FF00FF" stroke-width="0.32" stroke-miterlimit="10"/>
<path d="M1208.43 148.914C1079.07 133.652 940.544 95.0823 806.581 107.783C750.252 113.149 700.477 133.192 642.866 134.329C588.82 135.402 534.958 127.897 480.901 129.196C420.735 130.639 375.342 146.082 323.013 117.001C273.391 89.4177 256.347 106.177 205.703 116.821C157.82 126.914 104.687 114.115 55.4561 119.527C19.9978 123.468 -9.57971 132.912 -46.1794 132.976C-104.53 133.075 -142.76 138.721 -194.904 159.314" stroke="#FF00FF" stroke-width="0.32" stroke-miterlimit="10"/>
<path d="M1221.83 147.345C1134.42 137.73 1051.77 117.768 963.709 110.516C910.935 106.169 857.715 93.5405 804.342 100.233C749.731 107.089 703.25 129.485 646.835 131.001C590.745 132.498 534.872 122.648 478.815 124.326C412.377 126.31 370.864 143.593 315.285 108.559C264.337 76.4474 252.239 101.929 202.541 113.709C154.31 125.138 97.5679 108.09 47.2393 115.071C11.1288 120.05 -15.8617 128.926 -53.6897 128.728C-113.867 128.403 -152.401 136.53 -204.643 159.225" stroke="#FF00FF" stroke-width="0.32" stroke-miterlimit="10"/>
<path d="M1229.62 144.404C1142.54 135.691 1059.25 115.188 971.882 106.745C917.434 101.478 861.768 85.458 806.472 93.3506C752.828 101.009 706.945 125.372 651.301 127.095C593.45 128.899 535.936 117.849 478.205 119.581C415.441 121.466 369.287 142.844 317.849 106.222C300.914 94.1714 280.63 77.9804 254.618 83.1849C236.889 86.7298 225.671 101.027 209.453 106.781C163.353 123.144 102.426 102.686 52.7275 109C18.8236 113.312 -8.25383 123.811 -43.3969 123.992C-111.194 124.353 -150.467 129.16 -210.036 157.014" stroke="#FF00FF" stroke-width="0.32" stroke-miterlimit="10"/>
<path d="M1230.78 137.838C1142.85 126.716 1058.23 108.414 969.893 98.7806C918.021 93.125 865.996 78.1426 812.863 83.7261C755.98 89.6974 706.836 115.179 648.725 117.921C592.2 120.573 535.817 109.758 479.347 112.166C413.648 114.972 370.722 135.456 316.578 98.1582C297.783 85.2054 279.619 69.5645 251.629 73.2447C233.378 75.635 219.486 87.5776 201.974 91.8261C155.472 103.11 102.61 89.8146 54.5319 98.7264C20.2367 105.086 -4.96026 116.956 -41.2773 117.488C-109.683 118.489 -149.87 121.592 -210.666 149.23" stroke="#FF00FF" stroke-width="0.32" stroke-miterlimit="10"/>
<path d="M1230.78 131.029C1141.82 114.107 1055.25 100.45 964.948 89.6804C911.685 83.3664 861.313 69.3582 806.473 74.9597C747.524 80.9851 695.304 103.644 635.029 106.088C583.418 108.181 531.6 99.8641 480.065 103.265C414.334 107.594 372.451 127.511 318.416 89.9601C272.674 58.2094 250.891 65.0105 195.486 70.9187C144.918 76.3307 95.4806 73.2369 47.2282 88.8326C9.44372 101.109 -11.0464 110.382 -53.9073 111.031C-115.03 111.933 -156.586 118.058 -210.6 140.247" stroke="#FF00FF" stroke-width="0.32" stroke-miterlimit="10"/>
<path d="M1230.78 126.716C1140.66 104.166 1050.18 95.4258 957.534 82.8879C903.184 75.5275 853.714 62.3402 797.45 68.1491C737.817 74.3008 683.857 94.3073 622.876 96.5082C574.95 98.2401 526.654 92.0974 478.88 96.4541C425.736 101.289 381.245 120.132 334.036 92.8461C285.533 64.7936 263.38 52.833 201.181 53.1577C149.287 53.4373 98.9152 59.6342 52.3911 77.8908C14.2914 92.8461 -6.1444 103.3 -51.0053 105.483C-110.921 108.397 -156.163 112.952 -210.622 132.895" stroke="#FF00FF" stroke-width="0.32" stroke-miterlimit="10"/>
<path d="M1230.78 124.324C1140.23 96.5332 1045.6 92.5012 951.023 78.3216C897.085 70.2035 849.018 57.1154 792.885 62.2117C733.816 67.6238 679.27 85.9255 619.256 88.6496C572.167 90.7874 524.436 85.5467 477.641 91.0399C429.203 96.7226 387.06 114.673 342.851 90.7332C296.218 65.477 266.239 44.343 206.323 39.4811C153.624 35.2056 101.48 49.0334 56.5216 69.1121C18.2806 86.1781 -3.35089 97.0202 -49.5054 100.827C-107.563 105.607 -156.478 109.666 -210.568 127.093" stroke="#FF00FF" stroke-width="0.32" stroke-miterlimit="10"/>
<path d="M1230.78 123.261C1138.68 90.3647 1038.56 91.366 941.055 74.6608C886.357 65.2889 839.257 52.6067 781.928 58.0729C729.958 63.0249 681.086 77.917 628.659 81.6333C578.244 85.2413 526.48 79.7661 476.532 86.8198C422.181 94.4959 387.625 111.174 340.069 81.6965C303.882 59.2635 266.152 38.0032 219.171 29.7498C164.582 20.1795 110.014 38.9323 64.3375 60.2738C25.3465 78.4853 1.93225 91.1224 -45.4506 96.751C-102.801 103.561 -155.847 107.476 -210.676 122.602" stroke="#FF00FF" stroke-width="0.32" stroke-miterlimit="10"/>
<path d="M1230.78 122.947C1137.97 85.3147 1033.2 91.3762 933.511 72.3348C879.628 62.061 834.082 48.9728 777.101 54.0962C726.685 58.6063 678.933 72.6235 628.18 76.6464C577.939 80.6423 526.001 75.8166 476.368 84.0249C426.203 92.3324 397.016 106.665 351.079 82.5726C311.186 61.6461 277.804 33.3861 229.606 22.0569C174.07 8.98679 116.187 31.8978 70.0109 53.8527C30.3676 72.7227 4.07283 86.4513 -43.7339 93.6764C-99.9976 102.191 -155.609 106.611 -210.666 119.221" stroke="#FF00FF" stroke-width="0.32" stroke-miterlimit="10"/>
<path d="M1230.78 122.756C1137.36 80.5515 1028.27 91.9078 926.609 70.3768C873.584 59.1468 829.734 45.4453 773.079 50.5327C724.425 54.8894 678.205 68.4015 629.398 72.7581C579.309 77.2682 527.447 73.155 478.184 82.2834C434.052 90.4646 403.963 104.22 362.135 83.8619C320.307 63.5035 289.968 29.8767 241.781 16.2113C185.17 0.200616 122.971 26.3859 75.7836 48.5212C35.2598 67.5265 5.57358 82.6622 -42.3962 91.3756C-97.9968 101.478 -154.956 106.71 -210.622 116.704" stroke="#FF00FF" stroke-width="0.32" stroke-miterlimit="10"/>
<path d="M1230.78 122.224C1138.05 75.6356 1026.04 92.5663 923.543 69.0058C872.573 57.2797 830.843 42.0448 775.71 46.5097C723.033 50.7672 673.357 66.3539 620.528 70.7918C574.624 74.6614 528.469 72.8935 483.434 81.5437C449.683 88.0201 417.04 100.486 382.245 89.5626C329.807 73.0739 304.643 25.3396 250.097 10.1498C192.92 -5.77065 125.003 24.167 77.7946 45.8062C36.4882 64.7483 3.18216 80.6958 -44.6681 90.5638C-99.0186 101.767 -155.076 108.099 -210.622 114.99" stroke="#FF00FF" stroke-width="0.32" stroke-miterlimit="10"/>
<path d="M1230.78 120.645C1138.59 69.636 1023.47 92.6823 920.195 66.5241C869.986 53.8058 830.082 37.5606 775.047 42.6209C723.957 47.3113 676.129 63.4122 625.039 68.4814C579.983 72.9464 535.513 72.7209 491.272 81.3802C459.194 87.6491 423.366 98.0493 390.071 88.9661C336.612 74.3716 316.763 22.6324 263.76 6.32409C205.17 -11.6619 130.623 21.2253 81.6969 42.6119C-11.0686 83.1481 -101.54 107.214 -210.622 113.735" stroke="#FF00FF" stroke-width="0.32" stroke-miterlimit="10"/>
<path d="M940.12 71.2787C963.285 74.5169 982.264 85.6477 983.199 101.803C985.96 112.44 979.891 120.291 964.991 125.354C965.419 136.088 965.846 146.816 966.274 157.538" stroke="#FF00FF" stroke-width="0.32" stroke-miterlimit="10"/>
<path d="M894.346 58.8312C914.064 69.2404 937.989 78.2695 934.783 99.2953C930.475 107.003 925.49 114.437 919.869 121.539C909.535 132.05 907.644 144.077 914.195 157.619" stroke="#FF00FF" stroke-width="0.32" stroke-miterlimit="10"/>
<path d="M850.67 46.4737C866.019 63.4495 883.52 66.5073 882.194 89.292C880.846 112.871 863.193 132.967 862.095 157.655" stroke="#FF00FF" stroke-width="0.32" stroke-miterlimit="10"/>
<path d="M802.657 40.9991C815.299 59.7338 831.409 63.1704 830.528 86.0273C829.626 109.48 814.767 134.276 810.016 157.719" stroke="#FF00FF" stroke-width="0.32" stroke-miterlimit="10"/>
<path d="M750.307 45.9778C753.078 63.621 772.253 75.3742 773.134 94.4968C774.112 115.829 760.318 136.17 757.861 157.7" stroke="#FF00FF" stroke-width="0.32" stroke-miterlimit="10"/>
<path d="M697.945 56.45C687.858 77.5479 715.544 94.3343 715.718 114.566C715.849 130.55 700.293 141.04 705.685 157.7" stroke="#FF00FF" stroke-width="0.32" stroke-miterlimit="10"/>
<path d="M646.062 66.0835C619.582 85.6932 661.606 105.33 660.91 124.777C660.497 136.503 646.062 145.451 653.529 157.691" stroke="#FF00FF" stroke-width="0.32" stroke-miterlimit="10"/>
<path d="M594.124 70.6292C569.786 83.3926 600.342 107.945 601.94 124.001C603.114 135.727 595.711 145.929 601.429 157.7" stroke="#FF00FF" stroke-width="0.32" stroke-miterlimit="10"/>
<path d="M542.057 73.8225C514.947 79.5593 542.753 140.391 549.308 157.709" stroke="#FF00FF" stroke-width="0.32" stroke-miterlimit="10"/>
<path d="M490.685 81.4259C454.444 80.0819 493.446 144.467 497.207 157.718" stroke="#FF00FF" stroke-width="0.32" stroke-miterlimit="10"/>
<path d="M449.378 89.8149C427.192 92.0879 418.638 105.618 420.246 121.169C421.909 137.405 434.508 142.474 445.074 157.745" stroke="#FF00FF" stroke-width="0.32" stroke-miterlimit="10"/>
<path d="M412.18 91.9518C390.875 96.9039 358.341 100.701 358.395 121.565C358.449 136.899 378.668 145.639 392.919 157.753" stroke="#FF00FF" stroke-width="0.32" stroke-miterlimit="10"/>
<path d="M374.179 82.446C357.384 79.5867 303.675 64.8208 295.914 88.1558C290.479 104.599 332.677 144.179 340.742 157.61" stroke="#FF00FF" stroke-width="0.32" stroke-miterlimit="10"/>
<path d="M332.406 51.8772C296.73 48.5759 253.195 42.4242 253.717 79.4606C254.021 104.176 278.61 134.483 288.621 157.602" stroke="#FF00FF" stroke-width="0.32" stroke-miterlimit="10"/>
<path d="M286.652 17.6907C225.225 30.86 217.16 51.8858 222.519 97.0674C224.817 117.532 229.461 137.769 236.389 157.502" stroke="#FF00FF" stroke-width="0.32" stroke-miterlimit="10"/>
<path d="M236.661 1.08391C165.505 22.0466 177.962 52.787 179.876 102.316C180.539 120.077 173.68 140.588 184.224 157.573" stroke="#FF00FF" stroke-width="0.32" stroke-miterlimit="10"/>
<path d="M180.691 8.20148C120.634 35.2617 133.222 61.2756 131.776 107.224C131.232 124.552 123.699 140.255 132.178 157.601" stroke="#FF00FF" stroke-width="0.32" stroke-miterlimit="10"/>
<path d="M118.785 27.4493C66.6736 53.6978 75.4893 116.108 80.0656 157.636" stroke="#FF00FF" stroke-width="0.32" stroke-miterlimit="10"/>
<path d="M54.4353 55.1061C22.912 87.0191 25.8904 120.249 27.9557 157.682" stroke="#FF00FF" stroke-width="0.32" stroke-miterlimit="10"/>
<path d="M-318.051 193.942C225.204 193.04 769.286 187.312 1312.47 193.293" stroke="#FF00FF" stroke-width="0.37" stroke-miterlimit="10"/>
<path d="M-318.051 189.091C-47.0377 177.527 226.813 186.259 498.587 188.821C624.289 190.002 748.132 182.714 873.813 183.03C940.196 183.192 1006.7 183.463 1073.03 185.844C1152.79 188.703 1233.2 182.236 1312.47 188.469" stroke="#FF00FF" stroke-width="0.37" stroke-miterlimit="10"/>
<path d="M-318.051 184.246C-240.428 179.231 -164.37 170.382 -86.518 173.539C-18.558 176.299 49.7715 179.483 117.84 179.907C245.542 180.692 373.722 182.198 501.446 184.075C563.406 184.977 624.409 190.804 685.521 181.035C748.567 170.941 806.668 173.467 870.65 174.91C939.349 176.462 1008.22 175.226 1076.81 179.42C1155.58 184.228 1235.04 173.106 1312.48 183.642" stroke="#FF00FF" stroke-width="0.37" stroke-miterlimit="10"/>
<path d="M-318.051 179.394C-241.123 173.72 -166.718 163.789 -89.3767 166.323C-21.4386 168.551 46.6627 169.931 114.612 171.492C179.408 172.989 243.651 179.15 308.545 179.908C374.201 180.665 439.878 178.239 505.501 179.357C569.167 180.44 631.812 189.28 693.684 174.496C755.829 159.603 808.375 164.97 871.954 168.1C940.121 171.447 1008.71 168.1 1076.79 173.287C1112.26 175.993 1144.78 181.405 1180.45 177.617C1229.25 172.376 1263 169.634 1312.41 178.807" stroke="#FF00FF" stroke-width="0.37" stroke-miterlimit="10"/>
<path d="M-318.051 174.54C-239.504 168.768 -164.783 159.829 -85.6592 160.514C-22.2321 161.055 41.0863 159.739 104.481 162.318C172.767 165.133 239.651 175.668 308.219 176.642C375.538 177.607 442.835 173.521 510.132 174.685C575.113 175.803 637.877 186.808 700.185 168.777C765.481 149.88 810.331 157.601 877.769 162.733C940.512 167.514 1004.09 162.147 1066.91 166.576C1106.57 169.372 1141.82 177.905 1181.36 172.141C1232.31 164.736 1260.13 161.903 1312.43 173.945" stroke="#FF00FF" stroke-width="0.37" stroke-miterlimit="10"/>
<path d="M-318.051 169.66C-178.142 160.397 -34.9284 143.827 106.187 153.424C174.147 158.024 239.085 172.79 307.784 173.575C376.755 174.36 445.683 168.767 514.621 169.967C578.831 171.104 645.214 185.897 705.826 164.059C772.873 139.903 804.005 148.039 872.454 157.068C937.109 165.601 1004.47 156.103 1069.78 161.172C1109.09 164.23 1142.85 174.342 1182.08 166.585C1234.54 156.257 1257.81 154.362 1312.52 169.101" stroke="#FF00FF" stroke-width="0.37" stroke-miterlimit="10"/>
<path d="M-318.051 164.835C-182.892 157.484 -39.8851 134.113 95.9152 144.089C163.745 149.077 227.378 168.768 295.925 170.374C370.146 172.106 444.183 164.114 518.36 165.386C592.538 166.658 655.943 182.885 723.968 153.019C785.276 126.103 814.103 143.025 876.541 153.2C939.979 163.537 1007.98 150.421 1072.53 155.906C1106.23 158.765 1139.21 170.067 1172.97 164.024C1191.26 160.749 1205.48 151.937 1224.46 149.79C1257.84 146.02 1280.78 154.697 1312.42 164.348" stroke="#FF00FF" stroke-width="0.37" stroke-miterlimit="10"/>
<path d="M-318.051 159.983C-247.809 157.132 -176.066 151.54 -106.019 146.525C-40.483 141.843 26.3464 130.144 92.3171 136.043C163.147 142.357 227.878 166.035 300.012 167.136C373.777 168.254 447.313 159.36 521.023 160.695C592.125 161.976 660.28 181.73 724.153 149.97C751.133 136.557 776.71 123.442 810.266 128.169C833.8 131.488 852.823 144.27 875.791 149.005C935.816 161.372 1004.23 145.686 1066.12 150.033C1103.26 152.649 1138.53 166.414 1175.1 158.233C1192.15 154.417 1204.58 144.54 1223.18 142.258C1256.88 138.145 1281.57 149.032 1312.47 159.477" stroke="#FF00FF" stroke-width="0.37" stroke-miterlimit="10"/>
<path d="M-318.051 155.13C-251.32 153.199 -182.512 147.814 -116.074 142.646C-48.3639 137.378 20.9548 122.188 89.3713 128.656C159.516 135.276 223.074 161.299 294.49 163.365C370.385 165.557 445.998 154.345 521.828 155.941C602.647 157.628 662.433 178.212 733.643 140.797C758.459 127.781 783.112 113.367 815.527 120.051C837.604 124.561 854.66 138.569 876.313 144.161C935.859 159.495 1009.85 139.182 1072.33 144.901C1107.93 148.157 1141.98 163.031 1176.46 152.198C1188.35 148.464 1197.37 139.678 1209.91 136.458C1247.24 126.897 1280.08 142.772 1312.47 154.643" stroke="#FF00FF" stroke-width="0.37" stroke-miterlimit="10"/>
<path d="M-318.051 148.311C-250.396 144.306 -181.088 140.68 -113.835 134.708C-45.2876 128.629 24.2158 113.286 93.7193 120.637C167.125 128.394 234.15 152.866 309.219 154.327C379.549 155.698 449.813 145.974 520.099 148.202C593.005 150.52 658.628 172.728 723.686 138.993C750.622 125.012 776.579 106.106 812.266 108.631C835.256 110.264 855.192 122.441 876.932 127.294C938.131 140.95 1007.3 125.724 1070.33 134.627C1106.2 139.696 1139.5 156.988 1175.27 146.353C1187.51 142.745 1196.85 133.554 1209.51 130.117C1247.48 119.933 1278.63 134.555 1312.47 146.633" stroke="#FF00FF" stroke-width="0.37" stroke-miterlimit="10"/>
<path d="M-318.051 141.499C-247.939 132.371 -177.903 132.542 -107.704 125.606C-42.0592 119.111 22.0962 106.357 88.8713 110.867C165.94 116.062 237.705 139.731 315.6 142.149C383.68 144.259 451.9 136.222 519.958 139.632C589.527 143.123 657.519 164.96 719.794 131.956C747.991 117.01 775.232 100.566 811.244 99.0235C836.17 97.9592 859.964 104.733 884.52 106.763C945.73 111.841 1007.07 109.036 1067.01 121.772C1103.89 129.611 1134.63 147.93 1173.45 139.957C1191.11 136.349 1204.45 125.624 1223.31 122.819C1257.28 117.821 1280.41 127.329 1312.52 137.548" stroke="#FF00FF" stroke-width="0.37" stroke-miterlimit="10"/>
<path d="M-318.051 137.189C-249.407 123.533 -180.164 126.852 -110.432 120.051C-39.7765 113.15 27.4551 98.7815 99.5239 103.95C173.908 109.281 244.618 128.972 319.578 132.255C386.484 135.187 453.835 127.898 520.675 132.508C589.233 137.252 651.367 157.259 713.761 126.599C770.047 98.9439 810.386 89.5088 877.432 89.3735C943.99 89.2472 1010.05 94.7856 1072.59 113.304C1106.29 123.298 1132.29 139.282 1169.94 134.257C1188.85 131.732 1205.08 121.584 1224.43 118.923C1258.2 114.233 1279.4 121.133 1312.48 130.316" stroke="#FF00FF" stroke-width="0.37" stroke-miterlimit="10"/>
<path d="M-318.051 134.789C-247.026 116.144 -172.392 123.514 -98.899 115.224C-32.4609 107.729 30.7162 94.2617 98.6761 97.4909C174.039 101.099 246.303 120.131 321.829 124.01C388.582 127.429 456.129 121.196 522.632 127.23C587.537 133.12 645.606 152.324 705.163 123.045C760.807 95.6869 809.266 80.8849 876.095 75.6713C939.87 70.6832 1005.91 83.9969 1064.15 103.336C1098.03 114.593 1126.38 132.345 1165.32 129.151C1185.63 127.483 1204.87 118.796 1225.1 116.045C1258.16 111.535 1279.63 116.74 1312.51 124.47" stroke="#FF00FF" stroke-width="0.37" stroke-miterlimit="10"/>
<path d="M-318.051 133.724C-245.417 110.389 -165.87 121.773 -89.1811 112.076C-23.4713 103.814 38.1297 90.1484 105.611 92.8905C179.387 95.8942 250.673 113.42 324.448 117.633C390.68 121.421 458.075 115.883 523.839 123.207C582.679 129.765 636.823 147.994 691.999 122.567C747.872 96.8232 799.614 73.8581 865.595 65.1447C930.457 56.6027 999.156 74.9315 1057.33 95.6236C1091.27 107.692 1121.97 127.013 1161.69 124.488C1219.87 120.826 1252.01 108.351 1312.41 119.978" stroke="#FF00FF" stroke-width="0.37" stroke-miterlimit="10"/>
<path d="M-318.051 133.41C-243.841 105.529 -159.348 121.161 -79.2893 109.913C-14.4165 100.802 45.6082 86.5686 112.546 89.0581C184.093 91.719 253.532 108.118 324.948 112.646C390.843 116.822 458.335 111.879 523.643 120.412C577.863 127.493 625.822 143.584 678.183 122.874C736.61 99.7649 785.797 68.6907 852.029 57.1631C918.261 45.6354 990.71 67.7346 1049.81 89.1573C1085.25 102.011 1117.04 121.025 1158.34 120.664C1213.95 120.177 1255.66 108.28 1312.47 116.605" stroke="#FF00FF" stroke-width="0.37" stroke-miterlimit="10"/>
<path d="M-318.051 133.265C-242.515 100.928 -153.315 121.223 -70.2128 108.135C-6.29652 98.0593 52.1956 83.0679 118.568 85.5845C187.594 88.1913 254.597 103.913 323.372 108.784C388.962 113.429 456.238 109.172 521.099 118.706C570.667 125.967 615.517 140.291 664.585 123.586C725.034 102.984 770.568 64.9014 836.333 51.2089C904.38 37.0294 981.666 62.1954 1042.33 83.8977C1079.39 97.1572 1113.14 116.027 1155.65 117.687C1209.17 119.78 1258.42 108.974 1312.55 114.196" stroke="#FF00FF" stroke-width="0.37" stroke-miterlimit="10"/>
<path d="M-318.051 132.679C-241.895 96.0211 -148.565 121.223 -62.9733 106.268C0.0733329 95.2635 56.7827 79.3791 122.688 82.0129C189.202 84.719 253.597 100.405 319.741 105.718C384.723 110.94 450.976 107.72 515.186 117.769C560.536 124.858 606.278 137.793 651.878 124.083C713.381 105.6 754.546 61.7719 819.027 46.5099C889.085 29.9581 972.502 57.8572 1035.34 79.5685C1074.12 92.9633 1110.35 111.842 1153.92 115.378C1206.3 119.627 1259.77 110.273 1312.48 112.329" stroke="#FF00FF" stroke-width="0.37" stroke-miterlimit="10"/>
<path d="M-318.051 131.109C-243.461 90.582 -147.304 120.601 -61.3101 104.401C4.01921 92.0884 60.6416 74.0482 129.797 78.4951C193.116 82.5541 253.88 97.9334 316.904 103.589C379.929 109.245 443.259 107.837 505.675 117.651C548.72 124.425 595.538 134.618 639.16 124.218C700.239 109.659 735.904 61.4923 795.82 43.9843C869.367 22.4894 967.665 55.6202 1033.81 77.6923C1073.86 91.0511 1112 109.425 1156.19 114.296C1207.53 119.951 1260.98 112.654 1312.49 111.121" stroke="#FF00FF" stroke-width="0.37" stroke-miterlimit="10"/>
<path d="M37.836 82.7073C18.1393 99.169 -5.02487 100.558 -3.15521 125.526C-1.35078 149.609 21.4656 168.019 22.933 193.88" stroke="#FF00FF" stroke-width="0.37" stroke-miterlimit="10"/>
<path d="M100.22 77.2323C83.0014 96.2827 62.6634 97.0044 63.9896 122.261C65.207 145.514 84.545 170.771 90.654 193.943" stroke="#FF00FF" stroke-width="0.37" stroke-miterlimit="10"/>
<path d="M168.277 82.2102C163.929 100.801 139.776 109.848 138.613 130.72C137.417 152.251 155.211 172.095 158.451 193.924" stroke="#FF00FF" stroke-width="0.37" stroke-miterlimit="10"/>
<path d="M236.324 92.6739C249.629 114.647 213.399 130.152 213.236 150.79C213.106 167.64 233.107 176.047 226.28 193.924" stroke="#FF00FF" stroke-width="0.37" stroke-miterlimit="10"/>
<path d="M303.719 102.317C338.503 120.962 283.576 142.366 284.413 161.011C284.989 173.549 303.306 180.386 294.022 193.916" stroke="#FF00FF" stroke-width="0.37" stroke-miterlimit="10"/>
<path d="M371.255 106.854C402.669 118.237 363.059 144.179 361.091 160.225C359.613 172.222 369.233 181.937 361.765 193.933" stroke="#FF00FF" stroke-width="0.37" stroke-miterlimit="10"/>
<path d="M438.921 110.047C472.444 113.574 438.225 176.201 429.496 193.934" stroke="#FF00FF" stroke-width="0.37" stroke-miterlimit="10"/>
<path d="M505.653 117.651L524.371 120.627C517.849 133.743 524.871 146.704 519.762 159.702C514.936 171.988 502.968 181.522 497.207 193.979" stroke="#FF00FF" stroke-width="0.37" stroke-miterlimit="10"/>
<path d="M559.33 126.04C582.331 131.271 599.549 135.655 597.234 157.393C595.494 173.431 579.624 180.458 564.971 193.97" stroke="#FF00FF" stroke-width="0.37" stroke-miterlimit="10"/>
<path d="M607.712 128.169C630.191 132.183 678.292 134.835 677.596 157.773C677.118 173.865 650.138 182.596 632.735 193.962" stroke="#FF00FF" stroke-width="0.37" stroke-miterlimit="10"/>
<path d="M657.095 118.671C683.336 115.171 745.143 99.1153 754.796 124.985C761.318 142.619 711.903 178.483 700.543 193.907" stroke="#FF00FF" stroke-width="0.37" stroke-miterlimit="10"/>
<path d="M711.348 88.1102C747.861 85.4042 810.712 75.6355 812.277 114.07C813.288 139.146 780.634 171.582 768.319 193.808" stroke="#FF00FF" stroke-width="0.37" stroke-miterlimit="10"/>
<path d="M770.851 53.9247C839.833 65.299 862.323 80.6512 854.159 133.347C851.131 154.025 845.075 174.319 836.126 193.781" stroke="#FF00FF" stroke-width="0.37" stroke-miterlimit="10"/>
<path d="M835.822 37.3183C862.682 43.2535 892.868 48.7648 908.412 68.0587C931.446 96.6614 904.064 117.444 906.499 146.488C907.988 164.483 919.195 174.875 903.934 193.808" stroke="#FF00FF" stroke-width="0.37" stroke-miterlimit="10"/>
<path d="M908.543 44.4348C931.87 52.5528 953.208 59.381 966.263 76.907C984.59 101.487 971.024 115.937 972.144 143.457C972.861 161.01 982.905 176.29 971.633 193.834" stroke="#FF00FF" stroke-width="0.37" stroke-miterlimit="10"/>
</g>
</svg>
