<svg width="128" height="128" viewBox="0 0 128 128" fill="none" xmlns="http://www.w3.org/2000/svg">
<path fill-rule="evenodd" clip-rule="evenodd" d="M60.9373 26.1761C61.5319 25.5811 62.3351 25.2415 63.1763 25.2295L63.1795 25.2327C63.6108 25.2272 64.0388 25.3082 64.4384 25.4708C64.8379 25.6333 65.2008 25.8743 65.5057 26.1794L79.2111 39.8848C79.8168 40.4906 80.1571 41.3123 80.1571 42.169C80.1571 43.0257 79.8168 43.8473 79.2111 44.4532L41.2224 82.4387C40.6167 83.0446 39.795 83.3851 38.9382 83.3853H25.2328C24.3759 83.3853 23.5542 83.0449 22.9483 82.439C22.3423 81.8331 22.002 81.0113 22.002 80.1544V66.449C22.0021 65.5922 22.3427 64.7706 22.9486 64.1648L60.9373 26.1761ZM72.3584 42.1658L63.2215 33.0288L28.4637 67.7866V76.9235H37.6039L72.3584 42.1658ZM67.0668 71.4407C67.6516 70.8398 68.4496 70.4876 69.2896 70.4618C72.2362 70.3778 73.7483 73.9511 71.6353 76.006L56.7991 90.826C56.4897 91.1202 56.2433 91.4743 56.075 91.8667C55.9067 92.2591 55.8199 92.6816 55.8199 93.1086C55.8199 93.5356 55.9067 93.9581 56.075 94.3505C56.2433 94.7429 56.4897 95.097 56.7991 95.3912C57.0947 95.7001 57.4497 95.9459 57.8428 96.1138C58.236 96.2817 58.659 96.3683 59.0865 96.3683C59.514 96.3683 59.9371 96.2817 60.3302 96.1138C60.7234 95.9459 61.0784 95.7001 61.374 95.3912L76.9727 79.8055L78.8854 77.896C81.9321 74.9818 86.3713 79.4178 83.4538 82.4613L81.5411 84.3707C81.2317 84.665 80.9854 85.019 80.8171 85.4114C80.6487 85.8038 80.5619 86.2263 80.5619 86.6533C80.5619 87.0803 80.6487 87.5028 80.8171 87.8952C80.9854 88.2876 81.2317 88.6417 81.5411 88.9359C81.8359 89.245 82.1903 89.491 82.583 89.6591C82.9756 89.8272 83.3983 89.9139 83.8254 89.9139C84.2525 89.9139 84.6751 89.8272 85.0678 89.6591C85.4604 89.491 85.8148 89.245 86.1096 88.9359L90.7298 84.319C91.3361 83.7142 92.1576 83.3749 93.014 83.3756H102.726C107.094 83.3142 107.094 89.8923 102.726 89.8309H94.3516L90.6781 93.5012C88.8534 95.3049 86.3911 96.3165 83.8254 96.3165C81.2596 96.3165 78.7974 95.3049 76.9727 93.5012C76.0874 92.6127 75.5123 91.8179 75.0858 90.8195L65.9425 99.9565C64.1163 101.76 61.6531 102.771 59.0865 102.771C56.52 102.771 54.0568 101.76 52.2306 99.9565C51.1773 98.9032 50.4472 97.6464 49.9852 96.3185H25.2819C24.4254 96.3185 23.604 95.9783 22.9984 95.3727C22.3928 94.7671 22.0526 93.9457 22.0526 93.0892C22.0526 92.2328 22.3928 91.4114 22.9984 90.8058C23.604 90.2002 24.4254 89.86 25.2819 89.86H49.9981C50.4622 88.5076 51.2253 87.2774 52.2306 86.2608L67.0668 71.4407Z" fill="url(#paint0_linear_246_2293)"/>
<defs>
<linearGradient id="paint0_linear_246_2293" x1="21.0343" y1="44.1696" x2="108.767" y2="48.6519" gradientUnits="userSpaceOnUse">
<stop stop-color="#EF9C92"/>
<stop offset="1" stop-color="#DD3DCB"/>
</linearGradient>
</defs>
</svg>
