<svg width="128" height="128" viewBox="0 0 128 128" fill="none" xmlns="http://www.w3.org/2000/svg">
<path d="M27.8 104.4H100.1C103.8 104.4 107.2 102.5 109 99.2C110.8 96 110.8 92.1 108.9 88.9L72.8 28.6C70.9 25.5 67.7 23.6 64 23.6C60.3 23.6 57.1 25.5 55.2 28.6L19.1 88.9C17.2 92.1 17.1 96 19 99.2C20.8 102.4 24.1 104.4 27.8 104.4ZM24.2 92L60.4 31.7C61.2 30.4 62.5 29.6 64 29.6C65.5 29.6 66.8 30.3 67.6 31.7L103.8 92C104.6 93.3 104.6 94.9 103.9 96.3C103.1 97.6 101.8 98.4 100.2 98.4H27.8C26.3 98.4 24.9 97.6 24.1 96.3C23.3 95 23.4 93.3 24.2 92Z" fill="url(#paint0_linear_165_65)"/>
<path d="M64 76.3C65.7 76.3 67 75 67 73.3V52.3C67 50.6 65.7 49.3 64 49.3C62.3 49.3 61 50.6 61 52.3V73.3C61 75 62.3 76.3 64 76.3Z" fill="url(#paint1_linear_165_65)"/>
<path d="M64 86.5C65.6569 86.5 67 85.1569 67 83.5C67 81.8432 65.6569 80.5 64 80.5C62.3432 80.5 61 81.8432 61 83.5C61 85.1569 62.3432 86.5 64 86.5Z" fill="url(#paint2_linear_165_65)"/>
<defs>
<linearGradient id="paint0_linear_165_65" x1="16.556" y1="43.336" x2="113.359" y2="48.5746" gradientUnits="userSpaceOnUse">
<stop stop-color="#EF9C92"/>
<stop offset="1" stop-color="#DD3DCB"/>
</linearGradient>
<linearGradient id="paint1_linear_165_65" x1="16.556" y1="43.336" x2="113.359" y2="48.5746" gradientUnits="userSpaceOnUse">
<stop stop-color="#EF9C92"/>
<stop offset="1" stop-color="#DD3DCB"/>
</linearGradient>
<linearGradient id="paint2_linear_165_65" x1="16.556" y1="43.336" x2="113.359" y2="48.5746" gradientUnits="userSpaceOnUse">
<stop stop-color="#EF9C92"/>
<stop offset="1" stop-color="#DD3DCB"/>
</linearGradient>
</defs>
</svg>
